<?xml version="1.0" standalone="no"?>
<!DOCTYPE svg PUBLIC "-//W3C//DTD SVG 1.1//EN" "http://www.w3.org/Graphics/SVG/1.1/DTD/svg11.dtd" >
<svg>
<metadata>
Created by FontForge 20110222 at Mon Jan  5 18:22:27 2015
 By deploy user
Copyright 1990-1992 as an unpublished work by Bitstream Inc.  All rights reserved.  Confidential.
</metadata>
<defs>
<font id="Swiss721BT-Thin" horiz-adv-x="500" >
  <font-face 
    font-family="Swiss 721"
    font-weight="200"
    font-stretch="normal"
    units-per-em="1000"
    panose-1="2 0 5 6 3 0 0 2 0 4"
    ascent="800"
    descent="-200"
    x-height="519"
    cap-height="719"
    bbox="-168 -236 1075 963"
    underline-thickness="21"
    underline-position="-83"
    unicode-range="U+0020-FB02"
  />
<missing-glyph horiz-adv-x="260" 
 />
    <glyph glyph-name="fi" unicode="fi" horiz-adv-x="419" 
d="M316 519h31v-519h-31v519zM316 718h31v-84h-31v84zM222 696q-5 0 -9 0.5t-9 0.5q-23 0 -37 -5.5t-21.5 -18t-10 -32.5t-2.5 -48v-74h87v-29h-87v-490h-31v490h-72v29h72v73q0 36 4 61t14.5 40.5t29.5 22.5t48 7h11t13 -1v-26z" />
    <glyph glyph-name="fl" unicode="fl" horiz-adv-x="419" 
d="M316 718h31v-718h-31v718zM222 696q-5 0 -9 0.5t-9 0.5q-23 0 -37 -5.5t-21.5 -18t-10 -32.5t-2.5 -48v-74h87v-29h-87v-490h-31v490h-72v29h72v73q0 36 4 61t14.5 40.5t29.5 22.5t48 7h11t13 -1v-26z" />
    <glyph glyph-name=".notdef" horiz-adv-x="260" 
 />
    <glyph glyph-name=".null" horiz-adv-x="0" 
 />
    <glyph glyph-name="nonmarkingreturn" horiz-adv-x="260" 
 />
    <glyph glyph-name="space" unicode=" " horiz-adv-x="260" 
 />
    <glyph glyph-name="space" unicode="&#xa0;" horiz-adv-x="260" 
 />
    <glyph glyph-name="Acircumflex" unicode="&#xc2;" horiz-adv-x="574" 
d="M272 719h38l273 -719h-33l-93 245h-335l-94 -245h-34zM445 275l-154 405l-157 -405h311zM274 949h48l99 -160h-30l-93 132l-93 -132h-31z" />
    <glyph glyph-name="Adieresis" unicode="&#xc4;" horiz-adv-x="574" 
d="M272 719h38l273 -719h-33l-93 245h-335l-94 -245h-34zM445 275l-154 405l-157 -405h311zM352 887h46v-56h-46v56zM198 887h45v-56h-45v56z" />
    <glyph glyph-name="Agrave" unicode="&#xc0;" horiz-adv-x="574" 
d="M272 719h38l273 -719h-33l-93 245h-335l-94 -245h-34zM445 275l-154 405l-157 -405h311zM323 789l-124 160h53l102 -160h-31z" />
    <glyph glyph-name="Aring" unicode="&#xc5;" horiz-adv-x="574" 
d="M209 854q0 -35 24 -58t58 -23q35 0 58 23t23 58t-23 58t-58 23q-34 0 -58 -23.5t-24 -57.5zM181 853q0 23 8.5 43t23.5 35t35 23.5t43 8.5q47 0 78 -31.5t31 -78.5q0 -23 -8.5 -43t-23 -34.5t-34.5 -23t-43 -8.5t-43 8.5t-35 23t-23.5 34.5t-8.5 43zM272 719h38l273 -719
h-33l-93 245h-335l-94 -245h-34zM445 275l-154 405l-157 -405h311z" />
    <glyph glyph-name="Atilde" unicode="&#xc3;" horiz-adv-x="574" 
d="M272 719h38l273 -719h-33l-93 245h-335l-94 -245h-34zM445 275l-154 405l-157 -405h311zM428 902q-13 -36 -30 -52.5t-45 -16.5q-15 0 -33 5l-55 13q-12 3 -25 3q-26 0 -45 -33h-27q21 69 75 69q6 0 12.5 -1t14.5 -3l56 -13q20 -5 29 -5q30 0 45 34h28z" />
    <glyph glyph-name="B" unicode="B" horiz-adv-x="618" 
d="M82 719h197q61 0 106.5 -5.5t79.5 -25.5q37 -22 57 -60t20 -87q0 -58 -31.5 -100t-91.5 -64q160 -31 160 -185q0 -51 -22 -92.5t-60 -64.5q-36 -23 -84.5 -29t-111.5 -6h-219v719zM283 387q114 0 169.5 37t55.5 119q0 43 -14 71.5t-42.5 45t-71 23t-99.5 6.5h-165v-302
h167zM294 30q51 0 90.5 2.5t71.5 15.5q42 17 65 56t23 94q0 88 -61 125.5t-188 37.5h-179v-331h178z" />
    <glyph glyph-name="C" unicode="C" horiz-adv-x="681" 
d="M628 238q-3 -58 -24.5 -105t-57.5 -80t-86 -50.5t-110 -17.5q-70 0 -125.5 25t-94 73t-59 117t-20.5 158q0 90 21 160.5t61 118.5t96 73t127 25q55 0 102 -16.5t82.5 -46t58 -71t27.5 -91.5h-34q-15 93 -78 144t-164 51q-59 0 -107.5 -23.5t-83.5 -67.5t-54 -109
t-19 -147t18.5 -146t52 -108t81.5 -67t107 -23q55 0 100 15.5t77.5 44.5t51 70.5t21.5 93.5h33z" />
    <glyph glyph-name="Ccedilla" unicode="&#xc7;" horiz-adv-x="681" 
d="M628 238q-3 -58 -24.5 -105t-57.5 -80t-86 -50.5t-110 -17.5q-70 0 -125.5 25t-94 73t-59 117t-20.5 158q0 90 21 160.5t61 118.5t96 73t127 25q55 0 102 -16.5t82.5 -46t58 -71t27.5 -91.5h-34q-15 93 -78 144t-164 51q-59 0 -107.5 -23.5t-83.5 -67.5t-54 -109
t-19 -147t18.5 -146t52 -108t81.5 -67t107 -23q55 0 100 15.5t77.5 44.5t51 70.5t21.5 93.5h33zM261 -175q58 -15 110 -15q33 0 51 13.5t18 37.5q0 56 -79 56h-11t-12 -1v84h20v-59h12q98 0 98 -75q0 -39 -25.5 -61t-73.5 -22q-28 0 -54.5 4.5t-53.5 10.5v27z" />
    <glyph glyph-name="D" unicode="D" horiz-adv-x="689" 
d="M255 30q66 0 118.5 6.5t95.5 29.5q64 34 98.5 108t34.5 185q0 183 -95 267q-46 40 -107.5 51t-144.5 11h-139v-658h139zM82 719h165q72 0 129 -6t102 -29q78 -38 118.5 -120t40.5 -205q0 -124 -41 -206t-118 -118q-45 -21 -102 -28t-129 -7h-165v719z" />
    <glyph glyph-name="E" unicode="E" horiz-adv-x="567" 
d="M82 719h439v-32h-405v-297h370v-31h-370v-327h415v-32h-449v719z" />
    <glyph glyph-name="Eacute" unicode="&#xc9;" horiz-adv-x="567" 
d="M82 719h439v-32h-405v-297h370v-31h-370v-327h415v-32h-449v719zM354 949h53l-124 -160h-31z" />
    <glyph glyph-name="Ecircumflex" unicode="&#xca;" horiz-adv-x="567" 
d="M82 719h439v-32h-405v-297h370v-31h-370v-327h415v-32h-449v719zM284 949h48l99 -160h-30l-93 132l-93 -132h-31z" />
    <glyph glyph-name="Edieresis" unicode="&#xcb;" horiz-adv-x="567" 
d="M82 719h439v-32h-405v-297h370v-31h-370v-327h415v-32h-449v719zM362 887h46v-56h-46v56zM208 887h45v-56h-45v56z" />
    <glyph glyph-name="Egrave" unicode="&#xc8;" horiz-adv-x="567" 
d="M82 719h439v-32h-405v-297h370v-31h-370v-327h415v-32h-449v719zM333 789l-124 160h53l102 -160h-31z" />
    <glyph glyph-name="F" unicode="F" horiz-adv-x="523" 
d="M82 719h420v-32h-386v-297h341v-31h-341v-359h-34v719z" />
    <glyph glyph-name="G" unicode="G" horiz-adv-x="709" 
d="M625 141q-77 -157 -261 -157q-71 0 -129 26t-98.5 74.5t-62.5 118t-22 156.5t21.5 157t62 118.5t98.5 74.5t130 26q119 0 192 -57.5t88 -162.5h-34q-17 91 -80.5 140.5t-165.5 49.5q-63 0 -114 -24t-87.5 -68.5t-56 -108.5t-19.5 -145t19.5 -145t56 -108.5t87.5 -68
t114 -23.5q59 0 107 18.5t81.5 53.5t51.5 84.5t18 112.5v31h-237v30h269v-344h-29v141z" />
    <glyph glyph-name="H" unicode="H" horiz-adv-x="686" 
d="M82 719h34v-320h455v320h33v-719h-33v369h-455v-369h-34v719z" />
    <glyph glyph-name="I" unicode="I" horiz-adv-x="207" 
d="M87 719h33v-719h-33v719z" />
    <glyph glyph-name="Iacute" unicode="&#xcd;" horiz-adv-x="207" 
d="M87 719h33v-719h-33v719zM151 949h53l-124 -160h-31z" />
    <glyph glyph-name="Icircumflex" unicode="&#xce;" horiz-adv-x="207" 
d="M87 719h33v-719h-33v719zM81 949h48l99 -160h-30l-93 132l-93 -132h-31z" />
    <glyph glyph-name="Idieresis" unicode="&#xcf;" horiz-adv-x="207" 
d="M87 719h33v-719h-33v719zM159 887h46v-56h-46v56zM5 887h45v-56h-45v56z" />
    <glyph glyph-name="Igrave" unicode="&#xcc;" horiz-adv-x="207" 
d="M87 719h33v-719h-33v719zM130 789l-124 160h53l102 -160h-31z" />
    <glyph glyph-name="J" unicode="J" horiz-adv-x="473" 
d="M70 224q0 -9 -0.5 -16.5t-0.5 -12.5q0 -92 36 -137t112 -45q44 0 73 13.5t45.5 39.5t23 64.5t6.5 88.5v500h33v-510q0 -113 -42.5 -169.5t-141.5 -56.5q-85 0 -130.5 50.5t-45.5 148.5v19.5t1 22.5h31z" />
    <glyph glyph-name="K" unicode="K" horiz-adv-x="582" 
d="M82 719h34v-405l399 405h43l-284 -288l327 -431h-40l-309 408l-136 -138v-270h-34v719z" />
    <glyph glyph-name="L" unicode="L" horiz-adv-x="509" 
d="M83 719h34v-687h381v-32h-415v719z" />
    <glyph glyph-name="M" unicode="M" horiz-adv-x="773" 
d="M82 719h48l257 -677l257 677h47v-719h-30v677l-259 -677h-32l-258 677v-677h-30v719z" />
    <glyph glyph-name="N" unicode="N" horiz-adv-x="682" 
d="M82 719h34l451 -662v662h33v-719h-33l-452 661v-661h-33v719z" />
    <glyph glyph-name="Ntilde" unicode="&#xd1;" horiz-adv-x="682" 
d="M82 719h34l451 -662v662h33v-719h-33l-452 661v-661h-33v719zM471 902q-13 -36 -30 -52.5t-45 -16.5q-15 0 -33 5l-55 13q-12 3 -25 3q-26 0 -45 -33h-27q21 69 75 69q6 0 12.5 -1t14.5 -3l56 -13q20 -5 29 -5q30 0 45 34h28z" />
    <glyph glyph-name="O" unicode="O" horiz-adv-x="741" 
d="M87 359q0 -81 19.5 -145t56 -108.5t89 -68t118.5 -23.5t118.5 23.5t89.5 68t56.5 108.5t19.5 145t-19.5 145t-56.5 109t-89.5 68.5t-118.5 23.5t-118.5 -23.5t-89 -68.5t-56 -109t-19.5 -145zM52 359q0 88 22 158t63 118.5t100 74t133 25.5t133 -25.5t100.5 -74
t63.5 -118.5t22 -158t-22 -157.5t-63.5 -118t-100.5 -74t-133 -25.5t-133 25.5t-100 74t-63 118t-22 157.5z" />
    <glyph glyph-name="OE" unicode="&#x152;" horiz-adv-x="1045" 
d="M572 620q-29 40 -81.5 62.5t-121.5 22.5q-66 0 -118 -23.5t-88.5 -68.5t-56 -109t-19.5 -145t19.5 -145t56 -108.5t89 -68t118.5 -23.5q131 0 202 86v520zM572 57q-79 -73 -202 -73q-74 0 -133 25.5t-100 74t-63 118t-22 157.5t22 158t63 118.5t100.5 74.5t134.5 26
q125 0 200 -69v52h439v-31h-405v-298h370v-31h-370v-328h415v-31h-449v57z" />
    <glyph glyph-name="Oacute" unicode="&#xd3;" horiz-adv-x="741" 
d="M87 359q0 -81 19.5 -145t56 -108.5t89 -68t118.5 -23.5t118.5 23.5t89.5 68t56.5 108.5t19.5 145t-19.5 145t-56.5 109t-89.5 68.5t-118.5 23.5t-118.5 -23.5t-89 -68.5t-56 -109t-19.5 -145zM52 359q0 88 22 158t63 118.5t100 74t133 25.5t133 -25.5t100.5 -74
t63.5 -118.5t22 -158t-22 -157.5t-63.5 -118t-100.5 -74t-133 -25.5t-133 25.5t-100 74t-63 118t-22 157.5zM417 949h53l-124 -160h-31z" />
    <glyph glyph-name="Ocircumflex" unicode="&#xd4;" horiz-adv-x="741" 
d="M87 359q0 -81 19.5 -145t56 -108.5t89 -68t118.5 -23.5t118.5 23.5t89.5 68t56.5 108.5t19.5 145t-19.5 145t-56.5 109t-89.5 68.5t-118.5 23.5t-118.5 -23.5t-89 -68.5t-56 -109t-19.5 -145zM52 359q0 88 22 158t63 118.5t100 74t133 25.5t133 -25.5t100.5 -74
t63.5 -118.5t22 -158t-22 -157.5t-63.5 -118t-100.5 -74t-133 -25.5t-133 25.5t-100 74t-63 118t-22 157.5zM347 949h48l99 -160h-30l-93 132l-93 -132h-31z" />
    <glyph glyph-name="Odieresis" unicode="&#xd6;" horiz-adv-x="741" 
d="M87 359q0 -81 19.5 -145t56 -108.5t89 -68t118.5 -23.5t118.5 23.5t89.5 68t56.5 108.5t19.5 145t-19.5 145t-56.5 109t-89.5 68.5t-118.5 23.5t-118.5 -23.5t-89 -68.5t-56 -109t-19.5 -145zM52 359q0 88 22 158t63 118.5t100 74t133 25.5t133 -25.5t100.5 -74
t63.5 -118.5t22 -158t-22 -157.5t-63.5 -118t-100.5 -74t-133 -25.5t-133 25.5t-100 74t-63 118t-22 157.5zM425 887h46v-56h-46v56zM271 887h45v-56h-45v56z" />
    <glyph glyph-name="Ograve" unicode="&#xd2;" horiz-adv-x="741" 
d="M87 359q0 -81 19.5 -145t56 -108.5t89 -68t118.5 -23.5t118.5 23.5t89.5 68t56.5 108.5t19.5 145t-19.5 145t-56.5 109t-89.5 68.5t-118.5 23.5t-118.5 -23.5t-89 -68.5t-56 -109t-19.5 -145zM52 359q0 88 22 158t63 118.5t100 74t133 25.5t133 -25.5t100.5 -74
t63.5 -118.5t22 -158t-22 -157.5t-63.5 -118t-100.5 -74t-133 -25.5t-133 25.5t-100 74t-63 118t-22 157.5zM396 789l-124 160h53l102 -160h-31z" />
    <glyph glyph-name="Oslash" unicode="&#xd8;" horiz-adv-x="741" 
d="M571 621q-70 83 -202 83q-66 0 -118 -23.5t-88.5 -68t-56 -108.5t-19.5 -145q0 -143 62 -235zM126 97q-38 54 -56 118.5t-18 143.5q0 88 21.5 158t63 118t101 73.5t135.5 25.5q72 0 126 -20.5t95 -65.5l87 100l23 -22l-89 -104q74 -107 74 -263q0 -89 -22 -158.5
t-63.5 -118t-101.5 -74t-136 -25.5q-66 0 -120 22t-101 69l-86 -103l-23 19zM167 99q41 -44 91 -64.5t113 -20.5q66 0 118.5 23.5t89 68t56 108.5t19.5 145q0 145 -65 237z" />
    <glyph glyph-name="Otilde" unicode="&#xd5;" horiz-adv-x="741" 
d="M87 359q0 -81 19.5 -145t56 -108.5t89 -68t118.5 -23.5t118.5 23.5t89.5 68t56.5 108.5t19.5 145t-19.5 145t-56.5 109t-89.5 68.5t-118.5 23.5t-118.5 -23.5t-89 -68.5t-56 -109t-19.5 -145zM52 359q0 88 22 158t63 118.5t100 74t133 25.5t133 -25.5t100.5 -74
t63.5 -118.5t22 -158t-22 -157.5t-63.5 -118t-100.5 -74t-133 -25.5t-133 25.5t-100 74t-63 118t-22 157.5zM501 902q-13 -36 -30 -52.5t-45 -16.5q-15 0 -33 5l-55 13q-12 3 -25 3q-26 0 -45 -33h-27q21 69 75 69q6 0 12.5 -1t14.5 -3l56 -13q20 -5 29 -5q30 0 45 34h28z
" />
    <glyph glyph-name="P" unicode="P" horiz-adv-x="575" 
d="M278 719q131 0 195 -45t64 -145q0 -88 -54 -142q-36 -36 -86 -45.5t-122 -9.5h-159v-332h-34v719h196zM116 689v-327h137q53 0 94 2.5t73 16.5q38 17 60 57t22 94q0 91 -72 131q-32 18 -75 22t-101 4h-138z" />
    <glyph glyph-name="Q" unicode="Q" horiz-adv-x="741" 
d="M552 35q-69 -51 -189 -51q-72 0 -129.5 26t-98 74.5t-62 118t-21.5 156.5q0 88 22 158t63 118.5t100 74t133 25.5q73 0 132.5 -25.5t100.5 -73.5t63.5 -116t22.5 -153q0 -203 -112 -312l97 -79l-21 -24zM462 148l91 -72q49 45 75 116.5t26 166.5q0 81 -19.5 145
t-56.5 109t-89.5 68.5t-118.5 23.5t-118.5 -23.5t-89 -68.5t-56 -109t-19.5 -145t19.5 -145t56 -108.5t89 -67.5t118.5 -23q97 0 156 41l-84 69z" />
    <glyph glyph-name="R" unicode="R" horiz-adv-x="622" 
d="M82 719h239q125 0 185.5 -42t60.5 -146q0 -137 -130 -177q91 -18 101 -124q4 -41 5 -76.5t3.5 -64t7.5 -51t17 -38.5h-37q-14 18 -17 54t-6 93q-3 51 -7.5 88t-26.5 64q-20 24 -54 32.5t-85 8.5h-222v-340h-34v719zM338 370q97 0 146 40t49 118q0 71 -41 114
q-16 16 -33.5 25.5t-38.5 14t-45.5 5.5t-53.5 1h-205v-318h222z" />
    <glyph glyph-name="S" unicode="S" horiz-adv-x="573" 
d="M78 219q6 -96 63.5 -150.5t149.5 -54.5q46 0 84 12.5t64.5 35t41 53.5t14.5 67q0 42 -13 69t-39.5 46t-66 33t-92.5 29q-57 16 -100 30t-70 39q-51 46 -51 119q0 41 15 75.5t42.5 59.5t67.5 39t91 14q102 0 164 -56.5t66 -154.5h-32q-1 42 -15.5 76t-41 57.5t-63 36.5
t-80.5 13q-86 0 -134 -44t-48 -116q0 -56 44 -97q24 -23 63.5 -35.5t92.5 -26.5q58 -16 102 -32t73 -37.5t44 -52t15 -75.5q0 -46 -16.5 -84t-47.5 -65.5t-75.5 -42.5t-99.5 -15q-53 0 -96 16t-75 46t-51 73.5t-23 99.5h33z" />
    <glyph glyph-name="T" unicode="T" horiz-adv-x="509" 
d="M240 688h-228v31h486v-31h-224v-688h-34v688z" />
    <glyph glyph-name="U" unicode="U" horiz-adv-x="671" 
d="M110 719v-452q0 -125 57.5 -189t168.5 -64q110 0 168 64.5t58 188.5v452h33v-468q0 -63 -18 -112.5t-51.5 -84t-81.5 -52.5t-108 -18q-122 0 -190.5 69.5t-68.5 197.5v468h33z" />
    <glyph glyph-name="Uacute" unicode="&#xda;" horiz-adv-x="671" 
d="M110 719v-452q0 -125 57.5 -189t168.5 -64q110 0 168 64.5t58 188.5v452h33v-468q0 -63 -18 -112.5t-51.5 -84t-81.5 -52.5t-108 -18q-122 0 -190.5 69.5t-68.5 197.5v468h33zM382 949h53l-124 -160h-31z" />
    <glyph glyph-name="Ucircumflex" unicode="&#xdb;" horiz-adv-x="671" 
d="M110 719v-452q0 -125 57.5 -189t168.5 -64q110 0 168 64.5t58 188.5v452h33v-468q0 -63 -18 -112.5t-51.5 -84t-81.5 -52.5t-108 -18q-122 0 -190.5 69.5t-68.5 197.5v468h33zM312 949h48l99 -160h-30l-93 132l-93 -132h-31z" />
    <glyph glyph-name="Udieresis" unicode="&#xdc;" horiz-adv-x="671" 
d="M110 719v-452q0 -125 57.5 -189t168.5 -64q110 0 168 64.5t58 188.5v452h33v-468q0 -63 -18 -112.5t-51.5 -84t-81.5 -52.5t-108 -18q-122 0 -190.5 69.5t-68.5 197.5v468h33zM390 887h46v-56h-46v56zM236 887h45v-56h-45v56z" />
    <glyph glyph-name="Ugrave" unicode="&#xd9;" horiz-adv-x="671" 
d="M110 719v-452q0 -125 57.5 -189t168.5 -64q110 0 168 64.5t58 188.5v452h33v-468q0 -63 -18 -112.5t-51.5 -84t-81.5 -52.5t-108 -18q-122 0 -190.5 69.5t-68.5 197.5v468h33zM361 789l-124 160h53l102 -160h-31z" />
    <glyph glyph-name="V" unicode="V" horiz-adv-x="525" 
d="M-3 719h35l231 -670l230 670h35l-250 -719h-32z" />
    <glyph glyph-name="W" unicode="W" horiz-adv-x="824" 
d="M8 719h34l176 -659l174 659h41l174 -659l175 659h34l-192 -719h-34l-178 672l-178 -672h-34z" />
    <glyph glyph-name="X" unicode="X" horiz-adv-x="530" 
d="M245 368l-233 351h39l214 -323l213 323h37l-230 -350l244 -369h-38l-228 339l-225 -339h-37z" />
    <glyph glyph-name="Y" unicode="Y" horiz-adv-x="530" 
d="M248 318l-247 401h38l227 -367l224 367h38l-247 -403v-316h-33v318z" />
    <glyph glyph-name="Ydieresis" unicode="&#x178;" horiz-adv-x="530" 
d="M248 318l-247 401h38l227 -367l224 367h38l-247 -403v-316h-33v318zM319 887h46v-56h-46v56zM165 887h45v-56h-45v56z" />
    <glyph glyph-name="Z" unicode="Z" horiz-adv-x="529" 
d="M9 33l462 655h-423v31h459v-34l-462 -655h474v-30h-510v33z" />
    <glyph glyph-name="a" unicode="a" horiz-adv-x="507" 
d="M398 297q-11 -14 -44 -19t-90 -12q-50 -6 -87 -15.5t-61.5 -24t-36.5 -36t-12 -52.5q0 -57 34 -88.5t97 -31.5q44 0 82.5 14t65.5 37q17 15 27 30.5t15.5 33.5t7.5 39.5t2 47.5v77zM494 -3q-9 -1 -16 -2t-12 -1q-37 0 -52.5 22.5t-15.5 71.5q-31 -48 -84.5 -74.5
t-124.5 -26.5q-70 0 -112.5 40t-42.5 106q0 73 51 107.5t156 49.5q40 6 69.5 8.5t49 8t29 15t9.5 28.5v44q0 53 -35.5 81t-104.5 28q-79 0 -123 -34t-48 -95h-30q3 72 55 114.5t143 42.5q110 0 152 -60q16 -23 19 -49t3 -58v-253q0 -48 8 -69t38 -21q5 0 9.5 0.5t9.5 1.5
v-26z" />
    <glyph glyph-name="aacute" unicode="&#xe1;" horiz-adv-x="507" 
d="M398 297q-11 -14 -44 -19t-90 -12q-50 -6 -87 -15.5t-61.5 -24t-36.5 -36t-12 -52.5q0 -57 34 -88.5t97 -31.5q44 0 82.5 14t65.5 37q17 15 27 30.5t15.5 33.5t7.5 39.5t2 47.5v77zM494 -3q-9 -1 -16 -2t-12 -1q-37 0 -52.5 22.5t-15.5 71.5q-31 -48 -84.5 -74.5
t-124.5 -26.5q-70 0 -112.5 40t-42.5 106q0 73 51 107.5t156 49.5q40 6 69.5 8.5t49 8t29 15t9.5 28.5v44q0 53 -35.5 81t-104.5 28q-79 0 -123 -34t-48 -95h-30q3 72 55 114.5t143 42.5q110 0 152 -60q16 -23 19 -49t3 -58v-253q0 -48 8 -69t38 -21q5 0 9.5 0.5t9.5 1.5
v-26zM291 744h53l-124 -160h-31z" />
    <glyph glyph-name="acircumflex" unicode="&#xe2;" horiz-adv-x="507" 
d="M398 297q-11 -14 -44 -19t-90 -12q-50 -6 -87 -15.5t-61.5 -24t-36.5 -36t-12 -52.5q0 -57 34 -88.5t97 -31.5q44 0 82.5 14t65.5 37q17 15 27 30.5t15.5 33.5t7.5 39.5t2 47.5v77zM494 -3q-9 -1 -16 -2t-12 -1q-37 0 -52.5 22.5t-15.5 71.5q-31 -48 -84.5 -74.5
t-124.5 -26.5q-70 0 -112.5 40t-42.5 106q0 73 51 107.5t156 49.5q40 6 69.5 8.5t49 8t29 15t9.5 28.5v44q0 53 -35.5 81t-104.5 28q-79 0 -123 -34t-48 -95h-30q3 72 55 114.5t143 42.5q110 0 152 -60q16 -23 19 -49t3 -58v-253q0 -48 8 -69t38 -21q5 0 9.5 0.5t9.5 1.5
v-26zM221 744h48l99 -160h-30l-93 132l-93 -132h-31z" />
    <glyph glyph-name="acute" unicode="&#xb4;" 
d="M296 744h53l-124 -160h-31z" />
    <glyph glyph-name="adieresis" unicode="&#xe4;" horiz-adv-x="507" 
d="M398 297q-11 -14 -44 -19t-90 -12q-50 -6 -87 -15.5t-61.5 -24t-36.5 -36t-12 -52.5q0 -57 34 -88.5t97 -31.5q44 0 82.5 14t65.5 37q17 15 27 30.5t15.5 33.5t7.5 39.5t2 47.5v77zM494 -3q-9 -1 -16 -2t-12 -1q-37 0 -52.5 22.5t-15.5 71.5q-31 -48 -84.5 -74.5
t-124.5 -26.5q-70 0 -112.5 40t-42.5 106q0 73 51 107.5t156 49.5q40 6 69.5 8.5t49 8t29 15t9.5 28.5v44q0 53 -35.5 81t-104.5 28q-79 0 -123 -34t-48 -95h-30q3 72 55 114.5t143 42.5q110 0 152 -60q16 -23 19 -49t3 -58v-253q0 -48 8 -69t38 -21q5 0 9.5 0.5t9.5 1.5
v-26zM299 682h46v-56h-46v56zM145 682h45v-56h-45v56z" />
    <glyph glyph-name="ae" unicode="&#xe6;" horiz-adv-x="873" 
d="M800 285v5q0 49 -13.5 88t-37.5 66.5t-56.5 42.5t-70.5 15q-41 0 -75 -15t-59.5 -43t-40.5 -68t-18 -91h371zM398 290q-20 -11 -53 -15t-81 -10q-99 -12 -148 -38.5t-49 -88.5q0 -57 33.5 -88.5t95.5 -31.5q44 0 84 14t66 37q17 15 27 30.5t15.5 33.5t7.5 39.5t2 47.5v70
zM419 126q-11 -31 -32 -56.5t-50.5 -44t-67 -28.5t-79.5 -10q-71 0 -113.5 40t-42.5 106q0 73 51 108t156 49q40 6 69.5 9t49 8t29 15t9.5 28v44q0 108 -140 108q-155 0 -173 -128h-29q3 72 57 114.5t149 42.5q152 0 169 -114q30 56 77.5 84.5t107.5 28.5q101 0 159.5 -66.5
t58.5 -188.5v-19h-405v-10q0 -53 14 -96t39 -73t59.5 -46.5t74.5 -16.5q63 0 109.5 36t67.5 102h31q-21 -79 -75.5 -122.5t-132.5 -43.5q-144 0 -197 140z" />
    <glyph glyph-name="agrave" unicode="&#xe0;" horiz-adv-x="507" 
d="M398 297q-11 -14 -44 -19t-90 -12q-50 -6 -87 -15.5t-61.5 -24t-36.5 -36t-12 -52.5q0 -57 34 -88.5t97 -31.5q44 0 82.5 14t65.5 37q17 15 27 30.5t15.5 33.5t7.5 39.5t2 47.5v77zM494 -3q-9 -1 -16 -2t-12 -1q-37 0 -52.5 22.5t-15.5 71.5q-31 -48 -84.5 -74.5
t-124.5 -26.5q-70 0 -112.5 40t-42.5 106q0 73 51 107.5t156 49.5q40 6 69.5 8.5t49 8t29 15t9.5 28.5v44q0 53 -35.5 81t-104.5 28q-79 0 -123 -34t-48 -95h-30q3 72 55 114.5t143 42.5q110 0 152 -60q16 -23 19 -49t3 -58v-253q0 -48 8 -69t38 -21q5 0 9.5 0.5t9.5 1.5
v-26zM270 584l-124 160h53l102 -160h-31z" />
    <glyph glyph-name="ampersand" unicode="&#x26;" horiz-adv-x="609" 
d="M492 96q-46 -57 -101 -86.5t-115 -29.5q-50 0 -90.5 16t-69.5 44.5t-45 67.5t-16 85q0 144 179 224q-41 51 -63.5 90.5t-22.5 78.5q0 59 39.5 96t103.5 37q61 0 99.5 -37t38.5 -98q0 -112 -145 -178l205 -255q19 37 29 80t10 93h31q-2 -120 -48 -199l101 -125h-41z
M255 391q-83 -29 -125 -79.5t-42 -117.5q0 -39 14 -72.5t38.5 -58.5t57 -39t69.5 -14q60 0 113 29t91 85zM265 430q68 29 100.5 66t32.5 88q0 48 -31.5 77.5t-79.5 29.5q-23 0 -42 -8t-33.5 -21.5t-22.5 -31.5t-8 -39q0 -38 21 -77t63 -84z" />
    <glyph glyph-name="aring" unicode="&#xe5;" horiz-adv-x="507" 
d="M169 666q0 -35 23.5 -58.5t57.5 -23.5q35 0 58 23.5t23 58.5t-23 58t-58 23q-34 0 -57.5 -23.5t-23.5 -57.5zM141 665q0 23 8.5 43t23 34.5t34.5 23t43 8.5q47 0 78 -31t31 -78q0 -23 -8.5 -43t-23 -34.5t-34.5 -23t-43 -8.5t-43 8.5t-34.5 23t-23 34.5t-8.5 43zM398 297
q-11 -14 -44 -19t-90 -12q-50 -6 -87 -15.5t-61.5 -24t-36.5 -36t-12 -52.5q0 -57 34 -88.5t97 -31.5q44 0 82.5 14t65.5 37q17 15 27 30.5t15.5 33.5t7.5 39.5t2 47.5v77zM494 -3q-9 -1 -16 -2t-12 -1q-37 0 -52.5 22.5t-15.5 71.5q-31 -48 -84.5 -74.5t-124.5 -26.5
q-70 0 -112.5 40t-42.5 106q0 73 51 107.5t156 49.5q40 6 69.5 8.5t49 8t29 15t9.5 28.5v44q0 53 -35.5 81t-104.5 28q-79 0 -123 -34t-48 -95h-30q3 72 55 114.5t143 42.5q110 0 152 -60q16 -23 19 -49t3 -58v-253q0 -48 8 -69t38 -21q5 0 9.5 0.5t9.5 1.5v-26z" />
    <glyph glyph-name="asciicircum" unicode="^" horiz-adv-x="1000" 
d="M523 711l268 -270h-53l-238 236l-239 -236h-53l267 270h48z" />
    <glyph glyph-name="asciitilde" unicode="~" horiz-adv-x="833" 
d="M747 321q-103 -73 -189 -73q-41 0 -75 10.5t-66 22.5q-37 14 -71 25.5t-70 11.5q-45 0 -90 -20.5t-99 -58.5v36q100 73 189 73q22 0 45 -5t49 -14q50 -17 95.5 -34t92.5 -17q44 0 89.5 20t99.5 58v-35z" />
    <glyph glyph-name="asterisk" unicode="*" 
d="M143 456l87 109l-128 35l12 34l123 -45l-4 130h34l-4 -130l122 45l13 -34l-128 -35l86 -109l-25 -20l-82 112l-80 -112z" />
    <glyph glyph-name="at" unicode="@" horiz-adv-x="1000" 
d="M583 155q-23 -44 -61 -68t-80 -24q-76 0 -115 40t-39 118q0 56 18 104.5t48.5 84t71.5 56t87 20.5q96 0 126 -86l30 66h32l-67 -267q-5 -21 -8.5 -36t-3.5 -23q0 -46 61 -46q34 0 68.5 16t62.5 45q38 41 61 100t23 125q0 65 -25.5 119.5t-72.5 93.5t-113 61t-147 22
q-164 0 -277 -92q-78 -63 -117.5 -148t-39.5 -188q0 -80 28 -145t80 -111t125.5 -71.5t164.5 -25.5q81 0 160.5 24.5t147.5 69.5l11 -17q-141 -105 -314 -105q-186 0 -301 88q-146 112 -146 301q0 159 96 276q69 85 167 129t219 44q81 0 150.5 -22t117.5 -59
q126 -97 126 -245q0 -83 -30.5 -149.5t-86.5 -111.5q-69 -54 -148 -54q-92 0 -92 69q0 5 0.5 10.5t1.5 11.5zM631 353q-11 50 -41 76t-78 26q-38 0 -71 -18t-57 -50t-37.5 -75.5t-13.5 -93.5q0 -60 29 -92t80 -32q57 0 99 36t58 97z" />
    <glyph glyph-name="atilde" unicode="&#xe3;" horiz-adv-x="507" 
d="M398 297q-11 -14 -44 -19t-90 -12q-50 -6 -87 -15.5t-61.5 -24t-36.5 -36t-12 -52.5q0 -57 34 -88.5t97 -31.5q44 0 82.5 14t65.5 37q17 15 27 30.5t15.5 33.5t7.5 39.5t2 47.5v77zM494 -3q-9 -1 -16 -2t-12 -1q-37 0 -52.5 22.5t-15.5 71.5q-31 -48 -84.5 -74.5
t-124.5 -26.5q-70 0 -112.5 40t-42.5 106q0 73 51 107.5t156 49.5q40 6 69.5 8.5t49 8t29 15t9.5 28.5v44q0 53 -35.5 81t-104.5 28q-79 0 -123 -34t-48 -95h-30q3 72 55 114.5t143 42.5q110 0 152 -60q16 -23 19 -49t3 -58v-253q0 -48 8 -69t38 -21q5 0 9.5 0.5t9.5 1.5
v-26zM375 697q-13 -36 -30 -52.5t-45 -16.5q-15 0 -33 5l-55 13q-12 3 -25 3q-26 0 -45 -33h-27q21 69 75 69q6 0 12.5 -1t14.5 -3l56 -13q20 -5 29 -5q30 0 45 34h28z" />
    <glyph glyph-name="b" unicode="b" horiz-adv-x="572" 
d="M101 258q0 -116 53 -180t143 -64t143.5 64t53.5 180t-53.5 180t-143.5 64t-143 -64t-53 -180zM69 718h32v-317q55 129 196 129q52 0 94.5 -18.5t72.5 -53.5t46 -85.5t16 -114.5t-16 -114.5t-46 -85.5t-72.5 -53.5t-94.5 -18.5q-136 0 -196 124v-110h-32v718z" />
    <glyph glyph-name="backslash" unicode="\" horiz-adv-x="292" 
d="M21 738l283 -822h-34l-283 822h34z" />
    <glyph glyph-name="bar" unicode="|" 
d="M268 764v-1000h-36v1000h36z" />
    <glyph glyph-name="braceleft" unicode="{" 
d="M412 687h-18q-37 0 -59.5 -7t-35 -22.5t-17 -41.5t-4.5 -63v-118q0 -38 -3.5 -66.5t-13.5 -49.5t-28.5 -36t-48.5 -24q30 -9 48.5 -24t28.5 -36t13.5 -50t3.5 -66v-118q0 -38 4.5 -63.5t17 -41t35 -22.5t59.5 -7h18v-33h-16q-50 0 -80.5 10t-48 32t-23.5 57.5t-6 86.5
v116q0 77 -28 109.5t-100 32.5q-5 0 -10.5 -0.5t-11.5 -0.5v36q7 -1 13 -1h12q70 0 97.5 32.5t27.5 109.5v116q0 52 6 87.5t23.5 57.5t48 32t80.5 10h16v-34z" />
    <glyph glyph-name="braceright" unicode="}" 
d="M105 721q49 0 79.5 -10t48 -32t23.5 -57.5t6 -87.5v-116q0 -38 6.5 -65t21.5 -44t39 -25t59 -8h12t13 1v-36q-6 0 -11.5 0.5t-10.5 0.5q-72 0 -100.5 -32.5t-28.5 -109.5v-116q0 -51 -6 -86.5t-23.5 -57.5t-48 -32t-79.5 -10h-16v34h19q36 0 58.5 6.5t35 22t16.5 41
t4 63.5v118q0 37 3.5 66t14 50t29 36t48.5 24q-30 9 -48.5 24t-29 36t-14 49.5t-3.5 66.5v118q0 38 -4 63.5t-16.5 41.5t-35 22.5t-59.5 6.5h-18v34h16z" />
    <glyph glyph-name="bracketleft" unicode="[" horiz-adv-x="302" 
d="M115 -206v924h169v-30h-134v-864h134v-30h-169z" />
    <glyph glyph-name="bracketright" unicode="]" horiz-adv-x="302" 
d="M22 -176h134v864h-134v30h169v-924h-169v30z" />
    <glyph glyph-name="breve" unicode="&#x2d8;" 
d="M148 722q5 -43 29.5 -62t72.5 -19t72 18.5t29 62.5h23q-5 -60 -34.5 -88.5t-89.5 -28.5t-90 28.5t-35 88.5h23z" />
    <glyph glyph-name="bullet" unicode="&#x2022;" horiz-adv-x="590" 
d="M150 372q0 30 11.5 56t31 45.5t46 31t56.5 11.5t56 -11.5t45.5 -31t31 -45.5t11.5 -56t-11.5 -56t-31 -46t-46 -31.5t-56.5 -11.5t-56.5 11.5t-46 31t-30.5 46t-11 56.5z" />
    <glyph glyph-name="c" unicode="c" horiz-adv-x="519" 
d="M474 167q-9 -85 -64 -133t-141 -48q-51 0 -92.5 18.5t-71 53.5t-45.5 85.5t-16 114.5t16 114.5t45.5 85.5t71.5 53.5t95 18.5q83 0 134.5 -43t62.5 -120h-32q-11 63 -55 99t-110 36q-90 0 -143 -64t-53 -180t53 -180t143 -64q34 0 63.5 11t52 31t37 48t19.5 63h30z" />
    <glyph glyph-name="caron" unicode="&#x2c7;" 
d="M157 744l93 -132l93 132h30l-99 -160h-48l-100 160h31z" />
    <glyph glyph-name="ccedilla" unicode="&#xe7;" horiz-adv-x="519" 
d="M474 167q-9 -85 -64 -133t-141 -48q-51 0 -92.5 18.5t-71 53.5t-45.5 85.5t-16 114.5t16 114.5t45.5 85.5t71.5 53.5t95 18.5q83 0 134.5 -43t62.5 -120h-32q-11 63 -55 99t-110 36q-90 0 -143 -64t-53 -180t53 -180t143 -64q34 0 63.5 11t52 31t37 48t19.5 63h30z
M178 -175q58 -15 110 -15q33 0 51 13.5t18 37.5q0 56 -79 56h-11t-12 -1v84h20v-59h12q98 0 98 -75q0 -39 -25.5 -61t-73.5 -22q-28 0 -54.5 4.5t-53.5 10.5v27z" />
    <glyph glyph-name="cedilla" unicode="&#xb8;" 
d="M159 -175q58 -15 110 -15q33 0 51 13.5t18 37.5q0 56 -79 56h-11t-12 -1v84h20v-59h12q98 0 98 -75q0 -39 -25.5 -61t-73.5 -22q-28 0 -54.5 4.5t-53.5 10.5v27z" />
    <glyph glyph-name="cent" unicode="&#xa2;" horiz-adv-x="521" 
d="M324 495q-24 7 -55 7q-43 0 -79 -17t-61.5 -48.5t-40 -75.5t-14.5 -98q0 -83 24 -137.5t75 -83.5zM163 9q-60 35 -91.5 96t-31.5 148q0 65 16.5 116.5t47 87.5t73.5 55.5t96 19.5q30 0 60 -8l40 117h30l-42 -126q46 -18 73.5 -55t34.5 -90h-31q-20 89 -86 116l-153 -457
q19 -6 37 -9.5t35 -3.5q34 0 64 11t53 31.5t37.5 48t18.5 60.5h32q-5 -41 -22 -74.5t-43.5 -57.5t-62 -37t-75.5 -13t-83 12l-47 -137h-30z" />
    <glyph glyph-name="circumflex" unicode="&#x2c6;" 
d="M226 744h48l99 -160h-30l-93 132l-93 -132h-31z" />
    <glyph glyph-name="colon" unicode=":" horiz-adv-x="284" 
d="M125 487h33v-87h-33v87zM125 87h33v-87h-33v87z" />
    <glyph glyph-name="comma" unicode="," horiz-adv-x="260" 
d="M138 86h34l-71 -191h-34z" />
    <glyph glyph-name="copyright" unicode="&#xa9;" horiz-adv-x="833" 
d="M538 450q-11 43 -42.5 67t-78.5 24q-66 0 -104 -49.5t-38 -141.5q0 -88 39.5 -138t102.5 -50q50 0 85 28t43 74h36q-3 -29 -16.5 -54t-36 -43t-52 -28t-63.5 -10q-41 0 -74 15.5t-57 44t-37 69.5t-13 92q0 52 13.5 93.5t38.5 70.5t59.5 44t76.5 15q63 0 106.5 -34
t50.5 -89h-39zM416 675q-66 0 -123.5 -23.5t-103.5 -70.5q-47 -48 -72 -107t-25 -123t24.5 -122.5t71.5 -105.5t105.5 -72t122.5 -25t123.5 25t107.5 73q46 45 70 102.5t24 124.5q0 66 -24 124.5t-70 104.5q-48 48 -106.5 71.5t-124.5 23.5zM416 706q73 0 137 -26t116 -78
q51 -51 77 -115t26 -136q0 -73 -25.5 -136.5t-76.5 -113.5q-52 -51 -117.5 -78.5t-136.5 -27.5t-135 27t-115 78t-78 115.5t-27 135.5t27 135.5t78 116.5q51 51 114 77t136 26z" />
    <glyph glyph-name="currency" unicode="&#xa4;" horiz-adv-x="606" 
d="M304 594q-34 0 -63.5 -13t-51.5 -34.5t-34.5 -51t-12.5 -62.5t12.5 -62.5t34.5 -51.5t51.5 -35t63.5 -13t63.5 13t51.5 35t34.5 51.5t12.5 62.5t-12.5 62.5t-34.5 51.5t-51.5 34.5t-63.5 12.5zM175 588q58 46 128 46q71 0 129 -46l100 101l29 -29l-101 -100
q45 -57 45 -128t-45 -128l101 -100l-29 -29l-100 101q-57 -45 -129 -45q-71 0 -128 45l-101 -101l-28 29l101 100q-45 57 -45 128t45 128l-101 100l28 29z" />
    <glyph glyph-name="d" unicode="d" horiz-adv-x="572" 
d="M471 258q0 116 -53 180t-143 64t-143.5 -64t-53.5 -180t53.5 -180t143.5 -64t143 64t53 180zM502 0h-31v115q-25 -63 -74.5 -96t-121.5 -33q-53 0 -95 18.5t-72 53.5t-46 85.5t-16 114.5t16 114.5t46 85.5t72 53.5t95 18.5q72 0 122.5 -33t73.5 -92v313h31v-718z" />
    <glyph glyph-name="dagger" unicode="&#x2020;" 
d="M234 477h-196v29h196v213h31v-213h197v-29h-197v-582h-31v582z" />
    <glyph glyph-name="daggerdbl" unicode="&#x2021;" 
d="M462 136v-29h-197v-212h-31v212h-196v29h196v341h-196v29h196v213h31v-213h197v-29h-197v-341h197z" />
    <glyph glyph-name="degree" unicode="&#xb0;" horiz-adv-x="329" 
d="M165 682q-22 0 -41.5 -8.5t-34 -22.5t-23 -34t-8.5 -42q0 -23 8.5 -42.5t23 -33.5t34 -22.5t41.5 -8.5t41.5 8.5t34 23t22.5 34t8 41.5t-8.5 41.5t-22.5 34t-33.5 23t-41.5 8.5zM165 707q27 0 50.5 -10.5t41.5 -28.5t28.5 -42t10.5 -51t-10 -50.5t-28 -41.5t-42 -28.5
t-52 -10.5t-52 10t-41.5 28t-27.5 42t-10 51q0 28 10.5 52t28.5 42t42 28t51 10z" />
    <glyph glyph-name="dieresis" unicode="&#xa8;" 
d="M304 682h46v-56h-46v56zM150 682h45v-56h-45v56z" />
    <glyph glyph-name="divide" unicode="&#xf7;" horiz-adv-x="833" 
d="M417 177q19 0 31.5 -12.5t12.5 -31.5q0 -18 -12.5 -31.5t-31.5 -13.5t-32 13t-13 31q0 19 13.5 32t31.5 13zM709 313v-30h-585v30h585zM417 508q18 0 31 -13t13 -32t-12.5 -31.5t-31.5 -12.5t-32 12.5t-13 31.5q0 18 13.5 31.5t31.5 13.5z" />
    <glyph glyph-name="dollar" unicode="$" horiz-adv-x="521" 
d="M271 19q85 8 128 49t43 108q0 64 -41.5 101t-129.5 55v-313zM241 -14q-95 9 -146 65t-51 153v3h32q3 -168 165 -188v320q-92 24 -135.5 69t-43.5 120q0 79 48 127t131 48v45h30v-45q91 -2 139.5 -46.5t49.5 -126.5h-29q-11 142 -157 142h-3v-306q206 -36 206 -188
q0 -88 -51.5 -136t-154.5 -56v-69h-30v69zM241 672q-69 -2 -107.5 -39.5t-38.5 -101.5q0 -63 35.5 -100.5t110.5 -57.5v299z" />
    <glyph glyph-name="dotaccent" unicode="&#x2d9;" 
d="M226 684h49v-59h-49v59z" />
    <glyph glyph-name="dotlessi" unicode="&#x131;" horiz-adv-x="175" 
d="M72 519h31v-519h-31v519z" />
    <glyph glyph-name="e" unicode="e" horiz-adv-x="523" 
d="M447 285q0 51 -13.5 91t-37 68t-56 43t-71.5 15q-82 0 -134 -57t-58 -160h370zM471 152q-9 -38 -28 -68.5t-46 -52.5t-61 -33.5t-73 -11.5q-50 0 -90.5 18.5t-69.5 53.5t-44.5 85.5t-15.5 114.5t15.5 114.5t44.5 85.5t69.5 53.5t90.5 18.5q101 0 159.5 -66.5t58.5 -188.5
v-19h-405v-8q0 -54 14 -97.5t39 -73.5t59 -46.5t75 -16.5q64 0 111.5 36.5t65.5 101.5h31z" />
    <glyph glyph-name="eacute" unicode="&#xe9;" horiz-adv-x="523" 
d="M447 285q0 51 -13.5 91t-37 68t-56 43t-71.5 15q-82 0 -134 -57t-58 -160h370zM471 152q-9 -38 -28 -68.5t-46 -52.5t-61 -33.5t-73 -11.5q-50 0 -90.5 18.5t-69.5 53.5t-44.5 85.5t-15.5 114.5t15.5 114.5t44.5 85.5t69.5 53.5t90.5 18.5q101 0 159.5 -66.5t58.5 -188.5
v-19h-405v-8q0 -54 14 -97.5t39 -73.5t59 -46.5t75 -16.5q64 0 111.5 36.5t65.5 101.5h31zM312 744h53l-124 -160h-31z" />
    <glyph glyph-name="ecircumflex" unicode="&#xea;" horiz-adv-x="523" 
d="M447 285q0 51 -13.5 91t-37 68t-56 43t-71.5 15q-82 0 -134 -57t-58 -160h370zM471 152q-9 -38 -28 -68.5t-46 -52.5t-61 -33.5t-73 -11.5q-50 0 -90.5 18.5t-69.5 53.5t-44.5 85.5t-15.5 114.5t15.5 114.5t44.5 85.5t69.5 53.5t90.5 18.5q101 0 159.5 -66.5t58.5 -188.5
v-19h-405v-8q0 -54 14 -97.5t39 -73.5t59 -46.5t75 -16.5q64 0 111.5 36.5t65.5 101.5h31zM242 744h48l99 -160h-30l-93 132l-93 -132h-31z" />
    <glyph glyph-name="edieresis" unicode="&#xeb;" horiz-adv-x="523" 
d="M447 285q0 51 -13.5 91t-37 68t-56 43t-71.5 15q-82 0 -134 -57t-58 -160h370zM471 152q-9 -38 -28 -68.5t-46 -52.5t-61 -33.5t-73 -11.5q-50 0 -90.5 18.5t-69.5 53.5t-44.5 85.5t-15.5 114.5t15.5 114.5t44.5 85.5t69.5 53.5t90.5 18.5q101 0 159.5 -66.5t58.5 -188.5
v-19h-405v-8q0 -54 14 -97.5t39 -73.5t59 -46.5t75 -16.5q64 0 111.5 36.5t65.5 101.5h31zM320 682h46v-56h-46v56zM166 682h45v-56h-45v56z" />
    <glyph glyph-name="egrave" unicode="&#xe8;" horiz-adv-x="523" 
d="M447 285q0 51 -13.5 91t-37 68t-56 43t-71.5 15q-82 0 -134 -57t-58 -160h370zM471 152q-9 -38 -28 -68.5t-46 -52.5t-61 -33.5t-73 -11.5q-50 0 -90.5 18.5t-69.5 53.5t-44.5 85.5t-15.5 114.5t15.5 114.5t44.5 85.5t69.5 53.5t90.5 18.5q101 0 159.5 -66.5t58.5 -188.5
v-19h-405v-8q0 -54 14 -97.5t39 -73.5t59 -46.5t75 -16.5q64 0 111.5 36.5t65.5 101.5h31zM291 584l-124 160h53l102 -160h-31z" />
    <glyph glyph-name="eight" unicode="8" horiz-adv-x="521" 
d="M79 194q0 -40 13 -73t37 -56.5t57.5 -36.5t73.5 -13t73.5 13t57.5 36.5t37.5 56t13.5 71.5q0 76 -48.5 120t-133.5 44t-133 -43.5t-48 -118.5zM108 527q0 -65 42 -103t110 -38t110.5 38.5t42.5 102.5q0 31 -11 57t-31 45t-48 29.5t-63 10.5q-70 0 -111 -39.5t-41 -102.5z
M176 373q-104 44 -104 151q0 39 13.5 71t38 55t59.5 35.5t77 12.5q88 0 138 -47.5t50 -126.5q0 -54 -24.5 -90.5t-78.5 -60.5q132 -44 132 -180q0 -48 -15.5 -87.5t-44 -67t-69.5 -42.5t-91 -15q-47 0 -86.5 15.5t-67.5 43t-43.5 65.5t-15.5 84q0 137 132 184z" />
    <glyph glyph-name="ellipsis" unicode="&#x2026;" horiz-adv-x="1000" 
d="M818 87h32v-87h-32v87zM484 87h32v-87h-32v87zM151 87h32v-87h-32v87z" />
    <glyph glyph-name="emdash" unicode="&#x2014;" horiz-adv-x="1000" 
d="M1000 269v-21h-1000v21h1000z" />
    <glyph glyph-name="endash" unicode="&#x2013;" 
d="M0 269h500v-21h-500v21z" />
    <glyph glyph-name="equal" unicode="=" horiz-adv-x="833" 
d="M709 227v-30h-585v30h585zM709 400v-30h-585v30h585z" />
    <glyph glyph-name="exclam" unicode="!" horiz-adv-x="307" 
d="M138 88h34v-88h-34v88zM134 718h37l-4 -539h-24z" />
    <glyph glyph-name="exclamdown" unicode="&#xa1;" horiz-adv-x="307" 
d="M168 630h-34v88h34v-88zM172 0h-37l4 538h24z" />
    <glyph glyph-name="f" unicode="f" horiz-adv-x="243" 
d="M222 696q-5 0 -9 0.5t-9 0.5q-23 0 -37 -5.5t-21.5 -18t-10 -32.5t-2.5 -48v-74h87v-29h-87v-490h-31v490h-72v29h72v73q0 36 4 61t14.5 40.5t29.5 22.5t48 7h11t13 -1v-26z" />
    <glyph glyph-name="five" unicode="5" horiz-adv-x="521" 
d="M80 175q8 -81 52 -123t119 -42q88 0 138 53.5t50 144.5q0 43 -13.5 78t-37.5 59.5t-57.5 37.5t-74.5 13q-100 0 -157 -72h-27l56 355h317v-30h-291l-43 -272q60 48 151 48q46 0 85 -16t67 -45t43.5 -69.5t15.5 -90.5q0 -51 -15.5 -92.5t-44.5 -71t-69.5 -45.5t-90.5 -16
q-88 0 -142 51t-63 145h32z" />
    <glyph glyph-name="florin" unicode="&#x192;" horiz-adv-x="521" 
d="M154 383v30h87l32 154q14 66 42.5 97t79.5 31q28 0 58 -12l-5 -27q-29 10 -51 10q-42 0 -62 -27.5t-32 -84.5l-30 -141h90v-30h-96l-98 -459q-14 -66 -42.5 -97t-79.5 -31q-29 0 -59 12l6 27q29 -10 51 -10q43 0 62.5 27.5t31.5 84.5l95 446h-80z" />
    <glyph glyph-name="four" unicode="4" horiz-adv-x="521" 
d="M366 181h-319v32l322 466h29v-468h77v-30h-77v-181h-32v181zM367 623l-286 -412h286v412z" />
    <glyph glyph-name="fraction" unicode="&#x2044;" horiz-adv-x="167" 
d="M297 699h38l-465 -715h-38z" />
    <glyph glyph-name="fraction" unicode="&#x2215;" horiz-adv-x="167" 
d="M297 699h38l-465 -715h-38z" />
    <glyph glyph-name="g" unicode="g" horiz-adv-x="572" 
d="M471 258q0 116 -53 180t-143 64t-143.5 -64t-53.5 -180t53.5 -180t143.5 -64t143 64t53 180zM471 111q-26 -60 -77 -93t-121 -33q-52 0 -94 18.5t-71.5 54t-45.5 86t-16 114.5t16 114.5t46 85.5t72 53.5t95 18.5q72 0 123.5 -34t72.5 -93v116h31v-491q0 -42 -5 -77.5
t-28 -69.5q-61 -90 -208 -90q-90 0 -141.5 42t-52.5 111h30q3 -58 47.5 -91.5t124.5 -33.5q130 0 179 88q17 31 20 68t3 83v53z" />
    <glyph glyph-name="germandbls" unicode="&#xdf;" horiz-adv-x="488" 
d="M69 499q0 50 3.5 88.5t23.5 70.5q21 34 56.5 52t82.5 18q85 0 132 -46t47 -131q0 -113 -98 -149q63 -16 96.5 -65t33.5 -129q0 -106 -50.5 -162.5t-147.5 -56.5q-8 0 -16.5 0.5t-16.5 1.5v32q8 -1 15.5 -1.5t15.5 -0.5q81 0 123 47t42 139q0 181 -179 181h-17v28
q5 0 10.5 -0.5t10.5 -0.5q143 0 143 134q0 72 -37 111.5t-106 39.5q-40 0 -70.5 -17t-46.5 -47q-13 -24 -15 -57.5t-2 -79.5v-499h-33v499z" />
    <glyph glyph-name="grave" unicode="`" 
d="M275 584l-124 160h53l102 -160h-31z" />
    <glyph glyph-name="greater" unicode="&#x3e;" horiz-adv-x="833" 
d="M704 308v-20l-575 -235v34l521 211l-521 211v34z" />
    <glyph glyph-name="guillemotleft" unicode="&#xab;" horiz-adv-x="370" 
d="M43 260l125 150h40l-122 -150l122 -158h-40zM165 260l125 150h41l-123 -150l123 -158h-41z" />
    <glyph glyph-name="guillemotright" unicode="&#xbb;" horiz-adv-x="370" 
d="M327 251l-125 -149h-40l122 149l-122 159h40zM205 251l-125 -149h-41l123 149l-123 159h41z" />
    <glyph glyph-name="guilsinglleft" unicode="&#x2039;" horiz-adv-x="248" 
d="M43 260l125 150h40l-122 -150l122 -158h-40z" />
    <glyph glyph-name="guilsinglright" unicode="&#x203a;" horiz-adv-x="248" 
d="M162 251l-123 159h41l125 -159l-125 -149h-41z" />
    <glyph glyph-name="h" unicode="h" horiz-adv-x="521" 
d="M69 718h32v-284q24 47 68.5 71.5t106.5 24.5q178 0 178 -186v-344h-32v334q0 87 -33 127t-112 40q-88 0 -134 -52q-30 -34 -36 -75.5t-6 -95.5v-278h-32v718z" />
    <glyph glyph-name="hungarumlaut" unicode="&#x2dd;" 
d="M363 744h47l-105 -160h-25zM244 744h47l-96 -160h-25z" />
    <glyph glyph-name="hyphen" unicode="-" horiz-adv-x="343" 
d="M38 272h266v-28h-266v28z" />
    <glyph glyph-name="hyphen" unicode="&#xad;" horiz-adv-x="343" 
d="M38 272h266v-28h-266v28z" />
    <glyph glyph-name="i" unicode="i" horiz-adv-x="175" 
d="M72 519h31v-519h-31v519zM72 718h31v-84h-31v84z" />
    <glyph glyph-name="iacute" unicode="&#xed;" horiz-adv-x="175" 
d="M72 519h31v-519h-31v519zM135 744h53l-124 -160h-31z" />
    <glyph glyph-name="icircumflex" unicode="&#xee;" horiz-adv-x="175" 
d="M72 519h31v-519h-31v519zM65 744h48l99 -160h-30l-93 132l-93 -132h-31z" />
    <glyph glyph-name="idieresis" unicode="&#xef;" horiz-adv-x="175" 
d="M72 519h31v-519h-31v519zM143 682h46v-56h-46v56zM-11 682h45v-56h-45v56z" />
    <glyph glyph-name="igrave" unicode="&#xec;" horiz-adv-x="175" 
d="M72 519h31v-519h-31v519zM114 584l-124 160h53l102 -160h-31z" />
    <glyph glyph-name="j" unicode="j" horiz-adv-x="175" 
d="M73 718h31v-84h-31v84zM104 519v-600q0 -35 -3 -59t-13 -39t-28 -21.5t-49 -6.5h-18v30h11q25 0 39 5.5t21 18.5t8 33t1 50v589h31z" />
    <glyph glyph-name="k" unicode="k" horiz-adv-x="458" 
d="M69 718h32v-495l299 296h39l-189 -189l219 -330h-36l-205 308l-127 -123v-185h-32v718z" />
    <glyph glyph-name="l" unicode="l" horiz-adv-x="175" 
d="M72 718h31v-718h-31v718z" />
    <glyph glyph-name="less" unicode="&#x3c;" horiz-adv-x="833" 
d="M704 509l-522 -211l522 -211v-34l-575 235v20l575 235v-34z" />
    <glyph glyph-name="logicalnot" unicode="&#xac;" horiz-adv-x="833" 
d="M709 417v-245h-30v215h-555v30h585z" />
    <glyph glyph-name="m" unicode="m" horiz-adv-x="817" 
d="M69 519h32v-85q25 47 66 71.5t96 24.5q61 0 100.5 -27.5t53.5 -78.5q53 106 169 106q164 0 164 -186v-344h-32v312q0 37 -2 67t-13 55q-14 32 -44.5 49.5t-73.5 17.5q-38 0 -69 -13t-52 -39q-28 -34 -33.5 -74.5t-5.5 -94.5v-280h-31v312q0 37 -2 67t-13 55
q-14 32 -44.5 49.5t-73.5 17.5q-38 0 -69 -13t-52 -39q-28 -34 -33.5 -74.5t-5.5 -94.5v-280h-32v519z" />
    <glyph glyph-name="macron" unicode="&#xaf;" 
d="M141 672h218v-35h-218v35z" />
    <glyph glyph-name="macron" unicode="&#x2c9;" 
d="M141 672h218v-35h-218v35z" />
    <glyph glyph-name="mu" unicode="&#xb5;" horiz-adv-x="508" 
d="M131 516l-60 -285q-11 -52 -11 -81q0 -65 32.5 -99.5t92.5 -34.5q31 0 60.5 15t54.5 43.5t44.5 71t31.5 96.5l58 274h34l-94 -433q-3 -15 -3 -29q0 -35 39 -35h9t9 1l-6 -30q-7 -2 -13.5 -2h-11.5q-59 0 -59 55q0 7 1.5 16.5t3.5 21.5q-62 -99 -169 -99q-53 0 -88.5 26
t-46.5 74l-61 -290h-34l154 724h33z" />
    <glyph glyph-name="mu" unicode="&#x3bc;" horiz-adv-x="508" 
d="M131 516l-60 -285q-11 -52 -11 -81q0 -65 32.5 -99.5t92.5 -34.5q31 0 60.5 15t54.5 43.5t44.5 71t31.5 96.5l58 274h34l-94 -433q-3 -15 -3 -29q0 -35 39 -35h9t9 1l-6 -30q-7 -2 -13.5 -2h-11.5q-59 0 -59 55q0 7 1.5 16.5t3.5 21.5q-62 -99 -169 -99q-53 0 -88.5 26
t-46.5 74l-61 -290h-34l154 724h33z" />
    <glyph glyph-name="n" unicode="n" horiz-adv-x="521" 
d="M69 519h32v-85q24 47 68.5 71.5t106.5 24.5q178 0 178 -186v-344h-32v334q0 87 -33 127t-112 40q-88 0 -134 -52q-30 -34 -36 -75.5t-6 -95.5v-278h-32v519z" />
    <glyph glyph-name="nine" unicode="9" horiz-adv-x="521" 
d="M81 466q0 -47 12.5 -84.5t34.5 -63t53 -39t69 -13.5q37 0 69 14t54.5 40t35.5 62.5t13 82.5t-12.5 83.5t-34.5 63t-52.5 39.5t-67.5 14q-39 0 -71 -13.5t-55 -39t-35.5 -62.5t-12.5 -84zM87 148q20 -137 155 -137q198 0 198 335v24.5t-1 25.5q-19 -77 -68.5 -118.5
t-121.5 -41.5q-45 0 -82.5 16t-64 45.5t-41 72t-14.5 96.5t15.5 96.5t42.5 72.5t63.5 46t79.5 16q227 0 227 -343q0 -374 -239 -374q-78 0 -125.5 43.5t-55.5 124.5h32z" />
    <glyph glyph-name="ntilde" unicode="&#xf1;" horiz-adv-x="521" 
d="M69 519h32v-85q24 47 68.5 71.5t106.5 24.5q178 0 178 -186v-344h-32v334q0 87 -33 127t-112 40q-88 0 -134 -52q-30 -34 -36 -75.5t-6 -95.5v-278h-32v519zM391 697q-13 -36 -30 -52.5t-45 -16.5q-15 0 -33 5l-55 13q-12 3 -25 3q-26 0 -45 -33h-27q21 69 75 69
q6 0 12.5 -1t14.5 -3l56 -13q20 -5 29 -5q30 0 45 34h28z" />
    <glyph glyph-name="numbersign" unicode="#" horiz-adv-x="769" 
d="M297 283h133l49 142h-133zM447 709l-88 -248h134l88 248h46l-87 -248h159l-11 -36h-162l-50 -142h174l-11 -36h-175l-87 -246h-47l88 246h-135l-88 -246h-46l87 246h-166l11 36h167l52 142h-182l11 36h183l88 248h47z" />
    <glyph glyph-name="o" unicode="o" horiz-adv-x="545" 
d="M76 258q0 -116 53 -180t143 -64t143.5 64t53.5 180t-53.5 180t-143.5 64t-143 -64t-53 -180zM44 258q0 64 16 114.5t45.5 85.5t71.5 53.5t95 18.5q52 0 94.5 -18.5t72.5 -53.5t46 -85.5t16 -114.5t-16 -114.5t-46 -85.5t-72.5 -53.5t-94.5 -18.5q-53 0 -95 18.5
t-71.5 53.5t-45.5 85.5t-16 114.5z" />
    <glyph glyph-name="oacute" unicode="&#xf3;" horiz-adv-x="545" 
d="M76 258q0 -116 53 -180t143 -64t143.5 64t53.5 180t-53.5 180t-143.5 64t-143 -64t-53 -180zM44 258q0 64 16 114.5t45.5 85.5t71.5 53.5t95 18.5q52 0 94.5 -18.5t72.5 -53.5t46 -85.5t16 -114.5t-16 -114.5t-46 -85.5t-72.5 -53.5t-94.5 -18.5q-53 0 -95 18.5
t-71.5 53.5t-45.5 85.5t-16 114.5zM319 744h53l-124 -160h-31z" />
    <glyph glyph-name="ocircumflex" unicode="&#xf4;" horiz-adv-x="545" 
d="M76 258q0 -116 53 -180t143 -64t143.5 64t53.5 180t-53.5 180t-143.5 64t-143 -64t-53 -180zM44 258q0 64 16 114.5t45.5 85.5t71.5 53.5t95 18.5q52 0 94.5 -18.5t72.5 -53.5t46 -85.5t16 -114.5t-16 -114.5t-46 -85.5t-72.5 -53.5t-94.5 -18.5q-53 0 -95 18.5
t-71.5 53.5t-45.5 85.5t-16 114.5zM249 744h48l99 -160h-30l-93 132l-93 -132h-31z" />
    <glyph glyph-name="odieresis" unicode="&#xf6;" horiz-adv-x="545" 
d="M76 258q0 -116 53 -180t143 -64t143.5 64t53.5 180t-53.5 180t-143.5 64t-143 -64t-53 -180zM44 258q0 64 16 114.5t45.5 85.5t71.5 53.5t95 18.5q52 0 94.5 -18.5t72.5 -53.5t46 -85.5t16 -114.5t-16 -114.5t-46 -85.5t-72.5 -53.5t-94.5 -18.5q-53 0 -95 18.5
t-71.5 53.5t-45.5 85.5t-16 114.5zM327 682h46v-56h-46v56zM173 682h45v-56h-45v56z" />
    <glyph glyph-name="oe" unicode="&#x153;" horiz-adv-x="948" 
d="M872 285v12q0 47 -13.5 85t-37 64.5t-56 41t-70.5 14.5q-41 0 -75.5 -15t-60 -43.5t-41 -68.5t-16.5 -90h370zM76 258q0 -116 53 -180t143 -64t143.5 64t53.5 180t-53.5 180t-143.5 64t-143 -64t-53 -180zM486 150q-25 -81 -79 -122.5t-135 -41.5q-53 0 -95 18.5
t-71.5 53.5t-45.5 85.5t-16 114.5t16 114.5t45.5 85.5t71.5 53.5t95 18.5q81 0 136 -42t77 -122q22 80 75 122t131 42q49 0 89.5 -17.5t69 -50t44 -79.5t15.5 -106q0 -5 -0.5 -10.5t-0.5 -10.5h-407q0 -57 14 -101.5t39 -76t60 -48t77 -16.5q63 0 109.5 36t67.5 102h30
q-18 -77 -73.5 -121.5t-133.5 -44.5t-130.5 42t-74.5 122z" />
    <glyph glyph-name="ogonek" unicode="&#x2db;" 
d="M266 0q-40 -34 -61 -62t-21 -56q0 -29 16.5 -41.5t51.5 -12.5h31v-27h-26q-98 0 -98 75q0 60 82 124h25z" />
    <glyph glyph-name="ograve" unicode="&#xf2;" horiz-adv-x="545" 
d="M76 258q0 -116 53 -180t143 -64t143.5 64t53.5 180t-53.5 180t-143.5 64t-143 -64t-53 -180zM44 258q0 64 16 114.5t45.5 85.5t71.5 53.5t95 18.5q52 0 94.5 -18.5t72.5 -53.5t46 -85.5t16 -114.5t-16 -114.5t-46 -85.5t-72.5 -53.5t-94.5 -18.5q-53 0 -95 18.5
t-71.5 53.5t-45.5 85.5t-16 114.5zM298 584l-124 160h53l102 -160h-31z" />
    <glyph glyph-name="one" unicode="1" horiz-adv-x="521" 
d="M275 593q-31 -35 -71 -52t-94 -17h-9v29q154 3 174 126h33v-679h-33v593z" />
    <glyph glyph-name="ordfeminine" unicode="&#xaa;" horiz-adv-x="380" 
d="M299 564q-8 -10 -33.5 -13.5t-67.5 -8.5q-75 -9 -111.5 -27.5t-36.5 -61.5q0 -41 25.5 -62.5t73.5 -21.5q32 0 61.5 9.5t49.5 25.5q25 21 32 45t7 61v54zM371 354q-7 -1 -12 -1.5t-9 -0.5q-28 0 -39.5 15.5t-11.5 50.5q-23 -34 -63.5 -52.5t-93.5 -18.5t-84.5 28
t-31.5 74q0 52 38 75.5t117 34.5q30 4 52 6t36.5 5.5t22 10t7.5 20.5v31q0 37 -27 56.5t-78 19.5q-60 0 -93 -24t-36 -66h-22q2 51 41 80.5t107 29.5q83 0 114 -42q12 -16 14.5 -34t2.5 -41v-177q0 -34 5.5 -48.5t28.5 -14.5h7t8 1v-18z" />
    <glyph glyph-name="ordmasculine" unicode="&#xba;" horiz-adv-x="409" 
d="M57 537q0 -81 40 -126t107 -45t107.5 45t40.5 126t-40.5 125.5t-107.5 44.5t-107 -44.5t-40 -125.5zM33 537q0 90 46 140t125 50t125.5 -50t46.5 -140t-46.5 -140.5t-125.5 -50.5t-125 50.5t-46 140.5z" />
    <glyph glyph-name="oslash" unicode="&#xf8;" horiz-adv-x="545" 
d="M134 75q54 -61 139 -61q90 0 143 64t53 180q0 105 -38 158zM413 440q-53 62 -144 62q-43 0 -78.5 -16.5t-61 -48t-39.5 -77.5t-14 -104q0 -98 40 -158zM94 74q-26 38 -38 83t-12 100q0 64 16 114.5t46 86t72 54t95 18.5q98 0 161 -66l60 70l21 -20l-63 -73
q27 -39 38.5 -82t11.5 -95q0 -134 -61 -206t-168 -72q-99 0 -161 65l-62 -72l-20 19z" />
    <glyph glyph-name="otilde" unicode="&#xf5;" horiz-adv-x="545" 
d="M76 258q0 -116 53 -180t143 -64t143.5 64t53.5 180t-53.5 180t-143.5 64t-143 -64t-53 -180zM44 258q0 64 16 114.5t45.5 85.5t71.5 53.5t95 18.5q52 0 94.5 -18.5t72.5 -53.5t46 -85.5t16 -114.5t-16 -114.5t-46 -85.5t-72.5 -53.5t-94.5 -18.5q-53 0 -95 18.5
t-71.5 53.5t-45.5 85.5t-16 114.5zM403 697q-13 -36 -30 -52.5t-45 -16.5q-15 0 -33 5l-55 13q-12 3 -25 3q-26 0 -45 -33h-27q21 69 75 69q6 0 12.5 -1t14.5 -3l56 -13q20 -5 29 -5q30 0 45 34h28z" />
    <glyph glyph-name="p" unicode="p" horiz-adv-x="572" 
d="M101 258q0 -116 53 -180t143 -64t143.5 64t53.5 180t-53.5 180t-143.5 64t-143 -64t-53 -180zM69 519h32v-119q50 130 196 130q52 0 94.5 -18.5t72.5 -53.5t46 -85.5t16 -114.5t-16 -114.5t-46 -85.5t-72.5 -53.5t-94.5 -18.5q-72 0 -122 32.5t-74 93.5v-318h-32v725z
" />
    <glyph glyph-name="paragraph" unicode="&#xb6;" 
d="M452 722v-28h-65v-694h-28v694h-97v-694h-28v382q-88 4 -137 50.5t-49 119.5q0 37 13.5 68.5t38.5 54t60.5 35t80.5 12.5h211z" />
    <glyph glyph-name="parenleft" unicode="(" horiz-adv-x="288" 
d="M251 -220q-154 230 -154 478q0 126 35 237.5t108 220.5h35q-74 -104 -109.5 -215t-35.5 -239q0 -129 38 -246.5t117 -235.5h-34z" />
    <glyph glyph-name="parenright" unicode=")" horiz-adv-x="288" 
d="M6 -220q79 118 117.5 235.5t38.5 246.5q0 128 -35.5 239t-109.5 215h35q73 -109 108 -220.5t35 -237.5q0 -246 -155 -478h-34z" />
    <glyph glyph-name="percent" unicode="%" horiz-adv-x="727" 
d="M412 136q0 -26 9.5 -48t26 -38.5t39 -26t47.5 -9.5t47.5 9.5t39 26t26 38.5t9.5 48q0 25 -9.5 47.5t-26 39t-39 26t-47.5 9.5q-26 0 -48 -9.5t-38.5 -26t-26 -39t-9.5 -47.5zM381 136q0 32 12 60t32.5 48.5t48.5 32.5t60 12t60 -12t48.5 -32.5t32.5 -48.5t12 -60
t-12 -59.5t-32.5 -48t-48.5 -32.5t-60 -12t-59.5 12t-48.5 32.5t-33 48t-12 59.5zM545 719h35l-400 -735h-34zM40 566q0 32 12 60t32.5 48.5t48.5 32.5t60 12t59.5 -12t48 -32.5t32.5 -48.5t12 -60t-12 -60t-32.5 -48.5t-48 -32.5t-59.5 -12t-59.5 12t-48.5 33t-33 48.5
t-12 59.5zM71 565q0 -26 9.5 -48t26 -38.5t39 -26t47.5 -9.5t47.5 9.5t39 26t26.5 38.5t10 48q0 25 -9.5 47.5t-26.5 39t-39.5 26t-47.5 9.5q-26 0 -48 -9.5t-38.5 -26t-26 -39t-9.5 -47.5z" />
    <glyph glyph-name="period" unicode="." horiz-adv-x="260" 
d="M114 87h32v-87h-32v87z" />
    <glyph glyph-name="periodcentered" unicode="&#xb7;" horiz-adv-x="260" 
d="M130 307q-14 0 -23.5 9t-9.5 23t9.5 23.5t23.5 9.5t23.5 -9.5t9.5 -23.5t-9.5 -23t-23.5 -9z" />
    <glyph glyph-name="periodcentered" unicode="&#x2219;" horiz-adv-x="260" 
d="M130 307q-14 0 -23.5 9t-9.5 23t9.5 23.5t23.5 9.5t23.5 -9.5t9.5 -23.5t-9.5 -23t-23.5 -9z" />
    <glyph glyph-name="perthousand" unicode="&#x2030;" horiz-adv-x="1115" 
d="M769 136q0 32 12 60t32.5 48.5t48.5 32.5t60 12t60 -12t48.5 -32.5t32.5 -48.5t12 -60t-12 -59.5t-32.5 -48t-48.5 -32.5t-60 -12t-59.5 12t-48.5 32.5t-33 48t-12 59.5zM800 136q0 -26 9.5 -48t26 -39t39 -26.5t47.5 -9.5t47.5 9.5t39 26.5t26.5 39t10 48q0 25 -10 47.5
t-26.5 39t-39 26t-47.5 9.5t-47.5 -9.5t-39 -26t-26 -38.5t-9.5 -48zM381 136q0 32 12 60t32.5 48.5t48.5 32.5t60 12t60 -12t48.5 -32.5t32.5 -48.5t12 -60t-12 -59.5t-32.5 -48t-48.5 -32.5t-60 -12t-59.5 12t-48.5 32.5t-33 48t-12 59.5zM412 135q0 -26 9.5 -48t26 -38.5
t39 -26t47.5 -9.5t47.5 9.5t39 26t26 38.5t9.5 48q0 25 -9.5 47.5t-26 39t-39 26t-47.5 9.5q-26 0 -48 -9.5t-38.5 -26t-26 -39t-9.5 -47.5zM544 719h36l-401 -735h-33zM40 566q0 32 12 60t32.5 48.5t48 32.5t59.5 12t60 -12t48.5 -32.5t32.5 -48.5t12 -60t-12 -60
t-32.5 -48.5t-48.5 -32.5t-60 -12t-59.5 12t-48 33t-32.5 48.5t-12 59.5zM71 565q0 -26 9.5 -48t26 -38.5t39 -26t47.5 -9.5t47.5 9.5t39 26t26 38.5t9.5 48q0 25 -9.5 47.5t-26 39t-39 26t-47.5 9.5t-47.5 -9.5t-39 -26t-26 -38.5t-9.5 -48z" />
    <glyph glyph-name="plus" unicode="+" horiz-adv-x="833" 
d="M432 596v-283h277v-30h-277v-283h-30v283h-278v30h278v283h30z" />
    <glyph glyph-name="plusminus" unicode="&#xb1;" horiz-adv-x="833" 
d="M709 65v-30h-585v30h585zM432 562v-174h277v-30h-277v-175h-30v175h-278v30h278v174h30z" />
    <glyph glyph-name="q" unicode="q" horiz-adv-x="572" 
d="M78 258q0 -116 53.5 -180t143.5 -64t143 64t53 180t-53 180t-143 64t-143.5 -64t-53.5 -180zM471 112q-24 -61 -74 -93.5t-122 -32.5q-53 0 -95 18.5t-72 53.5t-46 85.5t-16 114.5t16 114.5t46 85.5t72 53.5t95 18.5q146 0 196 -130v119h31v-725h-31v318z" />
    <glyph glyph-name="question" unicode="?" horiz-adv-x="463" 
d="M201 86h39v-86h-39v86zM204 177q1 30 3.5 55t7.5 46q7 31 24 53t40 45q19 20 45 43t51 58q24 34 24 80q0 70 -43 107.5t-124 37.5q-80 0 -124 -47.5t-44 -136.5v-3h-33q0 105 55 162t152 57q44 0 80 -12.5t61.5 -35t39.5 -54.5t14 -71q0 -59 -33 -107
q-26 -38 -53.5 -61.5t-45.5 -41.5q-20 -20 -34.5 -37.5t-19.5 -43.5q-4 -18 -6.5 -41t-4.5 -52h-32z" />
    <glyph glyph-name="questiondown" unicode="&#xbf;" horiz-adv-x="463" 
d="M259 543q-1 -30 -3.5 -55t-7.5 -46q-7 -31 -24 -53t-40 -45q-19 -20 -45.5 -43t-51.5 -58q-23 -33 -23 -81q0 -70 43 -107.5t124 -37.5q80 0 124 48t44 137v3h33q0 -105 -55 -162t-152 -57q-44 0 -80 12.5t-61.5 35t-39.5 54.5t-14 71q0 59 33 107q26 38 53.5 61t45.5 41
q20 20 34.5 38t19.5 44q4 18 6.5 41t4.5 52h32zM262 634h-39v86h39v-86z" />
    <glyph glyph-name="quotedbl" unicode="&#x22;" horiz-adv-x="259" 
d="M209 700v-270h-34v270h34zM84 700v-270h-34v270h34z" />
    <glyph glyph-name="quotedblbase" unicode="&#x201e;" horiz-adv-x="381" 
d="M261 89h34l-70 -195h-34zM117 89h35l-70 -195h-35z" />
    <glyph glyph-name="quotedblleft" unicode="&#x201c;" horiz-adv-x="381" 
d="M279 524l-70 195h35l70 -195h-35zM136 524l-70 195h34l71 -195h-35z" />
    <glyph glyph-name="quotedblright" unicode="&#x201d;" horiz-adv-x="381" 
d="M280 719h34l-70 -195h-35zM136 719h34l-70 -195h-34z" />
    <glyph glyph-name="quoteleft" unicode="&#x2018;" horiz-adv-x="237" 
d="M136 524l-70 195h34l71 -195h-35z" />
    <glyph glyph-name="quoteright" unicode="&#x2019;" horiz-adv-x="237" 
d="M136 719h34l-70 -195h-34z" />
    <glyph glyph-name="quotesinglbase" unicode="&#x201a;" horiz-adv-x="237" 
d="M117 89h35l-70 -195h-35z" />
    <glyph glyph-name="quotesingle" unicode="'" horiz-adv-x="134" 
d="M84 700v-270h-34v270h34z" />
    <glyph glyph-name="r" unicode="r" horiz-adv-x="263" 
d="M69 519h32v-93q39 104 155 104v-31q-45 -2 -75 -17.5t-48 -46t-25 -76.5t-7 -107v-252h-32v519z" />
    <glyph glyph-name="registered" unicode="&#xae;" horiz-adv-x="833" 
d="M323 371h93q34 0 59 3.5t41 12.5t23.5 24.5t7.5 40.5q0 42 -32 59.5t-98 17.5h-94v-158zM428 564q86 0 127.5 -26.5t41.5 -88.5q0 -42 -27 -71.5t-74 -34.5l94 -194h-51l-89 187h-127v-187h-43v415h148zM416 675q-66 0 -124 -23.5t-104 -70.5q-47 -48 -71.5 -107
t-24.5 -123t25 -122.5t72 -105.5t105 -72t122 -25t124 25t108 73q93 91 93 227q0 66 -24.5 124.5t-70.5 104.5q-48 47 -106 71t-124 24zM416 706q72 0 136.5 -26t116.5 -77q51 -51 77 -115.5t26 -136.5q0 -73 -25.5 -136t-76.5 -113q-53 -52 -118 -79.5t-136 -27.5t-135 27
t-115 78t-78 115.5t-27 135.5t27 135.5t78 116.5q51 51 114 77t136 26z" />
    <glyph glyph-name="ring" unicode="&#x2da;" 
d="M171 664q0 -33 23 -55.5t56 -22.5t56 22.5t23 55.5q0 34 -22.5 56.5t-56.5 22.5q-33 0 -56 -22.5t-23 -56.5zM142 664q0 22 8.5 42t23 35t34 23.5t42.5 8.5t43 -8.5t34.5 -23t23 -34.5t8.5 -43t-8.5 -42.5t-23 -34t-34.5 -23t-43 -8.5t-42.5 8.5t-34 23t-23 34t-8.5 42.5
z" />
    <glyph glyph-name="s" unicode="s" horiz-adv-x="481" 
d="M81 154q26 -138 166 -138q70 0 111.5 32t41.5 86q0 39 -25 62.5t-78 37.5q-63 17 -111 30.5t-80 38.5q-42 33 -42 90q0 29 12.5 54t35.5 43.5t56 29t74 10.5q75 0 121.5 -40t53.5 -109h-31q-8 60 -46 90.5t-102 30.5t-102.5 -30t-38.5 -75q0 -30 11.5 -48.5t33 -31
t53 -22t71.5 -19.5q42 -11 73.5 -23t52 -28t31 -38.5t10.5 -53.5q0 -32 -13.5 -58.5t-38 -46.5t-58.5 -31t-75 -11q-87 0 -139 44t-60 124h32z" />
    <glyph glyph-name="section" unicode="&#xa7;" 
d="M113 71v-13q0 -61 33 -94t93 -33q63 0 97 31t34 83q0 38 -19.5 63t-61.5 45l-131 64q-103 51 -103 137q0 45 23.5 81t71.5 59q-26 21 -37.5 45.5t-11.5 55.5q0 30 10.5 55.5t30 44t47.5 29.5t62 11q75 0 115 -42.5t40 -122.5h-31q0 66 -31 100.5t-89 34.5
q-56 0 -89 -30.5t-33 -78.5q0 -43 26.5 -68.5t77.5 -48.5l77 -36q66 -30 98 -67t32 -87q0 -88 -96 -140q52 -38 52 -108q0 -30 -11 -55.5t-32 -44t-50 -29t-65 -10.5q-76 0 -117.5 39t-41.5 109v10.5t1 10.5h29zM326 167q45 26 66.5 53t21.5 64q0 42 -25.5 72.5t-79.5 55.5
l-132 61q-91 -36 -91 -115q0 -74 80 -113z" />
    <glyph glyph-name="semicolon" unicode=";" horiz-adv-x="284" 
d="M136 487h32v-87h-32v87zM134 86h35l-72 -191h-33z" />
    <glyph glyph-name="semicolon" unicode="&#x37e;" horiz-adv-x="284" 
d="M136 487h32v-87h-32v87zM134 86h35l-72 -191h-33z" />
    <glyph glyph-name="seven" unicode="7" horiz-adv-x="521" 
d="M154 0q51 361 268 647h-364v32h405v-33q-212 -252 -276 -646h-33z" />
    <glyph glyph-name="six" unicode="6" horiz-adv-x="521" 
d="M440 211q0 47 -12.5 84.5t-34.5 63t-53.5 39t-68.5 13.5q-38 0 -69 -14t-54 -40t-35.5 -62.5t-12.5 -82.5q0 -94 46 -147t120 -53q39 0 71 13.5t55 39t35.5 62.5t12.5 84zM434 529q-20 137 -155 137q-198 0 -198 -335v-24.5t1 -25.5q19 77 68.5 118.5t121.5 41.5
q45 0 82.5 -16t64.5 -45.5t41.5 -72t14.5 -96.5t-15.5 -96.5t-42.5 -72.5t-64 -46t-80 -16q-226 0 -226 343q0 189 58.5 281.5t179.5 92.5q78 0 125.5 -43.5t55.5 -124.5h-32z" />
    <glyph glyph-name="slash" unicode="/" horiz-adv-x="292" 
d="M304 738l-283 -822h-34l283 822h34z" />
    <glyph glyph-name="Aacute" unicode="&#xc1;" horiz-adv-x="574" 
d="M272 719h38l273 -719h-33l-93 245h-335l-94 -245h-34zM445 275l-154 405l-157 -405h311zM344 949h53l-124 -160h-31z" />
    <glyph glyph-name="sterling" unicode="&#xa3;" horiz-adv-x="521" 
d="M33 27q65 45 97 97.5t32 109.5q0 41 -20 93h-113v29h97q-33 56 -51.5 97.5t-18.5 74.5q0 36 14.5 68t41 55t64 36.5t83.5 13.5q97 0 150.5 -55.5t54.5 -158.5h-31q-4 91 -48 137.5t-123 46.5q-38 0 -69 -11t-53.5 -30t-34.5 -45t-12 -56q0 -32 19 -74t54 -99h143v-29
h-130q18 -47 18 -89q0 -98 -92 -188q41 11 63 11q24 0 46.5 -7t44 -15t42 -15t40.5 -7q34 0 68.5 16.5t60.5 47.5l21 -25q-72 -72 -149 -72q-24 0 -47.5 7t-46.5 15t-46 15t-47 7q-44 0 -99 -31z" />
    <glyph glyph-name="t" unicode="t" horiz-adv-x="243" 
d="M128 115q0 -50 7.5 -74t38.5 -24q11 0 22.5 2t25.5 6v-29q-32 -8 -53 -8q-41 0 -57 22.5t-16 71.5v409h-65v28h65v142h32v-142h94v-28h-94v-376z" />
    <glyph glyph-name="three" unicode="3" horiz-adv-x="521" 
d="M80 206v-3q0 -91 46 -140t127 -49q42 0 76.5 12.5t59 35t38.5 54t14 69.5q0 158 -210 158h-20v29q6 0 12 -0.5t11 -0.5q91 0 138.5 41.5t47.5 113.5q0 66 -41.5 103.5t-117.5 37.5q-77 0 -120.5 -44.5t-43.5 -124.5v-5h-31v3q0 97 52.5 149t149.5 52q42 0 76.5 -12.5
t59 -35t38 -53.5t13.5 -69q0 -61 -31 -105.5t-85 -61.5q65 -14 101 -59.5t36 -111.5q0 -46 -16 -84t-45 -65.5t-70 -42.5t-91 -15q-98 0 -153 57t-55 162v5h34z" />
    <glyph glyph-name="tilde" unicode="&#x2dc;" 
d="M380 697q-13 -36 -30 -52.5t-45 -16.5q-15 0 -33 5l-55 13q-12 3 -25 3q-26 0 -45 -33h-27q21 69 75 69q6 0 12.5 -1t14.5 -3l56 -13q20 -5 29 -5q30 0 45 34h28z" />
    <glyph glyph-name="trademark" unicode="&#x2122;" horiz-adv-x="833" 
d="M447 709l88 -222l82 222h42v-257h-23v239l-90 -239h-22l-96 239v-239h-24v257h43zM339 709v-20h-85v-237h-28v237h-87v20h200z" />
    <glyph glyph-name="two" unicode="2" horiz-adv-x="521" 
d="M50 49q0 27 3.5 53t20.5 53q33 53 143 123q52 32 95.5 56.5t71.5 53.5q26 26 37 54.5t11 65.5q0 74 -43.5 116.5t-115.5 42.5q-76 0 -122 -45.5t-46 -124.5v-11h-35v9q0 47 14.5 84.5t41 64t64 40.5t83.5 14q44 0 80 -13.5t61.5 -38.5t39.5 -59t14 -76t-11.5 -73
t-33.5 -56.5t-54 -47.5t-72 -46q-53 -32 -93.5 -58.5t-67.5 -53t-41 -55t-14 -62.5v-14t2 -15h381v-30h-414v49z" />
    <glyph glyph-name="u" unicode="u" horiz-adv-x="521" 
d="M451 0h-31v81q-24 -47 -68.5 -71t-106.5 -24q-178 0 -178 186v347h31v-337q0 -87 33.5 -127t112.5 -40q88 0 134 52q30 34 36 75.5t6 95.5v281h31v-519z" />
    <glyph glyph-name="uacute" unicode="&#xfa;" horiz-adv-x="521" 
d="M451 0h-31v81q-24 -47 -68.5 -71t-106.5 -24q-178 0 -178 186v347h31v-337q0 -87 33.5 -127t112.5 -40q88 0 134 52q30 34 36 75.5t6 95.5v281h31v-519zM307 744h53l-124 -160h-31z" />
    <glyph glyph-name="ucircumflex" unicode="&#xfb;" horiz-adv-x="521" 
d="M451 0h-31v81q-24 -47 -68.5 -71t-106.5 -24q-178 0 -178 186v347h31v-337q0 -87 33.5 -127t112.5 -40q88 0 134 52q30 34 36 75.5t6 95.5v281h31v-519zM237 744h48l99 -160h-30l-93 132l-93 -132h-31z" />
    <glyph glyph-name="udieresis" unicode="&#xfc;" horiz-adv-x="521" 
d="M451 0h-31v81q-24 -47 -68.5 -71t-106.5 -24q-178 0 -178 186v347h31v-337q0 -87 33.5 -127t112.5 -40q88 0 134 52q30 34 36 75.5t6 95.5v281h31v-519zM315 682h46v-56h-46v56zM161 682h45v-56h-45v56z" />
    <glyph glyph-name="ugrave" unicode="&#xf9;" horiz-adv-x="521" 
d="M451 0h-31v81q-24 -47 -68.5 -71t-106.5 -24q-178 0 -178 186v347h31v-337q0 -87 33.5 -127t112.5 -40q88 0 134 52q30 34 36 75.5t6 95.5v281h31v-519zM286 584l-124 160h53l102 -160h-31z" />
    <glyph glyph-name="underscore" unicode="_" 
d="M500 -206v-30h-500v30h500z" />
    <glyph glyph-name="v" unicode="v" horiz-adv-x="444" 
d="M8 519h33l178 -482l185 482h33l-200 -519h-36z" />
    <glyph glyph-name="w" unicode="w" horiz-adv-x="669" 
d="M13 519h33l148 -470l124 470h29l127 -470l150 470h32l-166 -519h-32l-126 463l-122 -463h-32z" />
    <glyph glyph-name="x" unicode="x" horiz-adv-x="410" 
d="M-5 0l190 268l-182 251h38l164 -225l160 225h37l-179 -251l192 -268h-37l-174 243l-172 -243h-37z" />
    <glyph glyph-name="y" unicode="y" horiz-adv-x="437" 
d="M203 -79q-25 -66 -49.5 -97.5t-67.5 -31.5q-10 0 -19 1t-17 5v30q21 -6 37 -6q25 0 40.5 14.5t27.5 45.5l44 114l-193 523h31l179 -482l179 482h34z" />
    <glyph glyph-name="ydieresis" unicode="&#xff;" horiz-adv-x="437" 
d="M203 -79q-25 -66 -49.5 -97.5t-67.5 -31.5q-10 0 -19 1t-17 5v30q21 -6 37 -6q25 0 40.5 14.5t27.5 45.5l44 114l-193 523h31l179 -482l179 482h34zM274 682h46v-56h-46v56zM120 682h45v-56h-45v56z" />
    <glyph glyph-name="yen" unicode="&#xa5;" horiz-adv-x="530" 
d="M248 296h-247v25h235l-50 77h-185v25h167l-167 257h37l228 -350l225 350h37l-166 -257h166v-25h-184l-50 -77h234v-25h-247v-296h-33v296z" />
    <glyph glyph-name="z" unicode="z" horiz-adv-x="437" 
d="M17 37l358 451h-338v31h372v-37l-358 -451h369v-31h-403v37z" />
    <glyph glyph-name="zero" unicode="0" horiz-adv-x="521" 
d="M73 340q0 -163 48.5 -246.5t139.5 -83.5t139 83t48 247t-48 246.5t-139 82.5t-139.5 -83t-48.5 -246zM39 340q0 177 58 268t163 91t163.5 -91t58.5 -268t-58.5 -268.5t-163.5 -91.5t-163 91.5t-58 268.5z" />
    <glyph glyph-name="A" unicode="A" horiz-adv-x="574" 
d="M272 719h38l273 -719h-33l-93 245h-335l-94 -245h-34zM445 275l-154 405l-157 -405h311z" />
    <glyph glyph-name="AE" unicode="&#xc6;" horiz-adv-x="950" 
d="M135 241l-111 -241h-36l331 719h594v-30h-403v-300h369v-30h-369v-328h414v-31h-447v241h-342zM477 689h-136l-192 -418h328v418z" />
    <glyph glyph-name="Eth" unicode="&#xd0;" horiz-adv-x="689" 
d="M255 30q66 0 118.5 6.5t95.5 29.5q64 34 98.5 108t34.5 185q0 183 -95 267q-46 40 -107.5 51t-144.5 11h-139v-289h243v-27h-243v-342h139zM82 372h-82v27h82v320h165q72 0 129 -6t102 -29q78 -38 118.5 -120t40.5 -205q0 -124 -41 -206t-118 -118q-45 -21 -102 -28
t-129 -7h-165v372z" />
    <glyph glyph-name="Lslash" unicode="&#x141;" horiz-adv-x="509" 
d="M83 301l-75 -56l-17 23l92 70v381h34v-362l236 178l18 -23l-254 -191v-289h381v-32h-415v301z" />
    <glyph glyph-name="Scaron" unicode="&#x160;" horiz-adv-x="573" 
d="M78 219q6 -96 63.5 -150.5t149.5 -54.5q46 0 84 12.5t64.5 35t41 53.5t14.5 67q0 42 -13 69t-39.5 46t-66 33t-92.5 29q-57 16 -100 30t-70 39q-51 46 -51 119q0 41 15 75.5t42.5 59.5t67.5 39t91 14q102 0 164 -56.5t66 -154.5h-32q-1 42 -15.5 76t-41 57.5t-63 36.5
t-80.5 13q-86 0 -134 -44t-48 -116q0 -56 44 -97q24 -23 63.5 -35.5t92.5 -26.5q58 -16 102 -32t73 -37.5t44 -52t15 -75.5q0 -46 -16.5 -84t-47.5 -65.5t-75.5 -42.5t-99.5 -15q-53 0 -96 16t-75 46t-51 73.5t-23 99.5h33zM194 949l93 -132l93 132h30l-99 -160h-48
l-100 160h31z" />
    <glyph glyph-name="Thorn" unicode="&#xde;" horiz-adv-x="586" 
d="M116 219h137q53 0 94 2.5t73 16.5q38 17 60 57t22 94q0 91 -72 131q-32 18 -75 22t-101 4h-138v-327zM82 0v719h34v-144h162q131 0 195 -45t64 -149q0 -51 -21.5 -92.5t-60.5 -66.5q-32 -20 -76 -26.5t-104 -6.5h-159v-189h-34z" />
    <glyph glyph-name="Yacute" unicode="&#xdd;" horiz-adv-x="530" 
d="M248 318l-247 401h38l227 -367l224 367h38l-247 -403v-316h-33v318zM311 949h53l-124 -160h-31z" />
    <glyph glyph-name="Zcaron" unicode="&#x17d;" horiz-adv-x="529" 
d="M9 33l462 655h-423v31h459v-34l-462 -655h474v-30h-510v33zM172 949l93 -132l93 132h30l-99 -160h-48l-100 160h31z" />
    <glyph glyph-name="brokenbar" unicode="&#xa6;" 
d="M268 199v-370h-36v370h36zM268 699v-370h-36v370h36z" />
    <glyph glyph-name="eth" unicode="&#xf0;" horiz-adv-x="545" 
d="M424 453q-28 49 -63 88t-79 68l-137 -58l-10 26l118 50q-34 22 -70.5 39.5t-76.5 32.5l12 25q44 -17 84.5 -37.5t80.5 -45.5l124 54l12 -26l-107 -47q189 -145 189 -369q0 -130 -59.5 -198t-169.5 -68t-169.5 67.5t-59.5 194.5q0 128 60.5 196.5t168.5 68.5
q45 0 81.5 -14.5t70.5 -46.5zM272 487q-45 0 -81 -16t-61.5 -46.5t-39.5 -74.5t-14 -100t14 -100t39.5 -74.5t61.5 -46.5t81 -16t81 16t62 46.5t40 74.5t14 100t-14 100t-40 74.5t-62 46.5t-81 16z" />
    <glyph glyph-name="lslash" unicode="&#x142;" horiz-adv-x="175" 
d="M72 356l-62 -47l-18 22l80 61v326h31v-309l61 47l18 -22l-79 -61v-373h-31v356z" />
    <glyph glyph-name="minus" unicode="&#x2212;" horiz-adv-x="833" 
d="M709 313v-30h-585v30h585z" />
    <glyph glyph-name="multiply" unicode="&#xd7;" horiz-adv-x="833" 
d="M416 320l240 240l22 -22l-240 -240l240 -240l-22 -22l-240 240l-240 -240l-22 22l240 240l-240 240l22 22z" />
    <glyph glyph-name="onehalf" unicode="&#xbd;" horiz-adv-x="823" 
d="M526 27q0 16 2.5 30.5t13.5 29.5q19 28 90 69q32 18 60 31t45 30q30 29 30 67q0 42 -27.5 66t-72.5 24q-48 0 -77 -25.5t-29 -70.5v-6h-22v5q0 54 35 84t93 30q56 0 89.5 -29t33.5 -76q0 -23 -7.5 -40.5t-21 -32t-34 -27t-45.5 -25.5q-67 -35 -101.5 -62t-34.5 -66v-8
t1 -8h240v-17h-261v27zM625 699h38l-465 -715h-38zM173 631q-20 -20 -44.5 -29.5t-59.5 -9.5h-5v17q97 2 109 70h21v-380h-21v332z" />
    <glyph glyph-name="onequarter" unicode="&#xbc;" horiz-adv-x="823" 
d="M726 101h-201v18l202 261h19v-262h48v-17h-48v-101h-20v101zM726 349l-180 -231h180v231zM625 699h38l-465 -715h-38zM173 631q-20 -20 -44.5 -29.5t-59.5 -9.5h-5v17q97 2 109 70h21v-380h-21v332z" />
    <glyph glyph-name="onesuperior" unicode="&#xb9;" horiz-adv-x="344" 
d="M181 628q-20 -21 -46.5 -31.5t-62.5 -10.5h-6v18q103 2 115 75h22v-407h-22v356z" />
    <glyph glyph-name="scaron" unicode="&#x161;" horiz-adv-x="481" 
d="M81 154q26 -138 166 -138q70 0 111.5 32t41.5 86q0 39 -25 62.5t-78 37.5q-63 17 -111 30.5t-80 38.5q-42 33 -42 90q0 29 12.5 54t35.5 43.5t56 29t74 10.5q75 0 121.5 -40t53.5 -109h-31q-8 60 -46 90.5t-102 30.5t-102.5 -30t-38.5 -75q0 -30 11.5 -48.5t33 -31
t53 -22t71.5 -19.5q42 -11 73.5 -23t52 -28t31 -38.5t10.5 -53.5q0 -32 -13.5 -58.5t-38 -46.5t-58.5 -31t-75 -11q-87 0 -139 44t-60 124h32zM149 744l93 -132l93 132h30l-99 -160h-48l-100 160h31z" />
    <glyph glyph-name="thorn" unicode="&#xfe;" horiz-adv-x="572" 
d="M101 -206h-32v924h32v-318q50 130 196 130q52 0 94.5 -18.5t72.5 -53.5t46 -85.5t16 -114.5t-16 -114.5t-46 -85.5t-72.5 -53.5t-94.5 -18.5q-72 0 -122 33t-74 93v-318zM297 502q-89 0 -142.5 -64t-53.5 -180t53 -180t143 -64t143.5 64t53.5 180q0 58 -14 103t-40 76.5
t-62.5 48t-80.5 16.5z" />
    <glyph glyph-name="threequarters" unicode="&#xbe;" horiz-adv-x="823" 
d="M726 101h-201v18l202 261h19v-262h48v-17h-48v-101h-20v101zM726 349l-180 -231h180v231zM625 699h38l-465 -715h-38zM50 414v-1q0 -51 29 -78.5t80 -27.5q53 0 86 26.5t33 69.5q0 88 -132 88h-13v16h14q57 0 87.5 23t30.5 64q0 36 -26.5 57.5t-74.5 21.5t-75.5 -25
t-27.5 -70v-3h-19v2q0 54 33 83t94 29q54 0 86 -26t32 -69q0 -34 -19.5 -59t-53.5 -34q41 -8 63.5 -33.5t22.5 -62.5q0 -52 -38.5 -84t-101.5 -32q-62 0 -96.5 32t-34.5 91v2h21z" />
    <glyph glyph-name="threesuperior" unicode="&#xb3;" horiz-adv-x="344" 
d="M53 396v-2q0 -55 30 -84.5t84 -29.5q55 0 89.5 28.5t34.5 74.5q0 95 -139 95h-13v17h15q60 0 91.5 24.5t31.5 68.5q0 39 -27 61.5t-78 22.5t-79.5 -26.5t-28.5 -74.5v-3h-20v2q0 57 34.5 88.5t98.5 31.5q56 0 89.5 -28t33.5 -74q0 -36 -20.5 -62.5t-55.5 -37.5
q43 -8 66.5 -35.5t23.5 -67.5q0 -55 -40 -89.5t-106 -34.5q-65 0 -101.5 34.5t-36.5 97.5v3h23z" />
    <glyph glyph-name="twosuperior" unicode="&#xb2;" horiz-adv-x="344" 
d="M33 301q0 17 2.5 32t13.5 32q11 15 34 34t60 40q35 20 63.5 34t46.5 32q17 16 24.5 32.5t7.5 39.5q0 45 -28.5 70t-76.5 25q-50 0 -80.5 -27t-30.5 -75v-6h-23v5q0 57 37 89.5t97 32.5q58 0 93.5 -31t35.5 -81q0 -25 -7.5 -44t-22 -34t-35.5 -28.5t-48 -27.5
q-35 -19 -61.5 -35t-44.5 -32t-27.5 -33t-9.5 -38v-8t2 -9h251v-18h-273v29z" />
    <glyph glyph-name="yacute" unicode="&#xfd;" horiz-adv-x="437" 
d="M203 -79q-25 -66 -49.5 -97.5t-67.5 -31.5q-10 0 -19 1t-17 5v30q21 -6 37 -6q25 0 40.5 14.5t27.5 45.5l44 114l-193 523h31l179 -482l179 482h34zM266 744h53l-124 -160h-31z" />
    <glyph glyph-name="zcaron" unicode="&#x17e;" horiz-adv-x="437" 
d="M17 37l358 451h-338v31h372v-37l-358 -451h369v-31h-403v37zM127 744l93 -132l93 132h30l-99 -160h-48l-100 160h31z" />
  </font>
</defs>
</svg>
